<mxfile host="app.diagrams.net" agent="Mozilla/5.0 (X11; Linux x86_64; rv:137.0) Gecko/20100101 Firefox/137.0" version="27.0.4">
  <diagram name="Page-1" id="23k4kIXcUpD67ppIFEuZ">
    <mxGraphModel dx="2978" dy="707" grid="1" gridSize="10" guides="1" tooltips="1" connect="1" arrows="1" fold="1" page="1" pageScale="1" pageWidth="850" pageHeight="1100" math="0" shadow="0">
      <root>
        <mxCell id="0" />
        <mxCell id="1" parent="0" />
        <mxCell id="bFtffV7Dq0BiN4H6MrVR-46" style="edgeStyle=orthogonalEdgeStyle;rounded=0;orthogonalLoop=1;jettySize=auto;html=1;exitX=0.5;exitY=0;exitDx=0;exitDy=0;entryX=0.75;entryY=1;entryDx=0;entryDy=0;" parent="1" source="wmerD7P6c2fhzKaJmc1H-5" target="bFtffV7Dq0BiN4H6MrVR-38" edge="1">
          <mxGeometry relative="1" as="geometry">
            <Array as="points">
              <mxPoint x="240" y="659" />
              <mxPoint x="240" y="500" />
              <mxPoint x="107" y="500" />
            </Array>
          </mxGeometry>
        </mxCell>
        <mxCell id="wmerD7P6c2fhzKaJmc1H-5" value="" style="rounded=0;whiteSpace=wrap;html=1;" parent="1" vertex="1">
          <mxGeometry x="142.5" y="659" width="120" height="110" as="geometry" />
        </mxCell>
        <mxCell id="-5aLn5IDz-yiHX2ItAhz-75" value="Foglalas" style="rounded=0;whiteSpace=wrap;html=1;" parent="1" vertex="1">
          <mxGeometry x="250" y="929.9999999999998" width="120" height="59" as="geometry" />
        </mxCell>
        <mxCell id="-5aLn5IDz-yiHX2ItAhz-74" value="Foglalas" style="rounded=0;whiteSpace=wrap;html=1;" parent="1" vertex="1">
          <mxGeometry x="240" y="919.9999999999998" width="120" height="59" as="geometry" />
        </mxCell>
        <mxCell id="-5aLn5IDz-yiHX2ItAhz-71" value="Klubtag" style="rounded=0;whiteSpace=wrap;html=1;" parent="1" vertex="1">
          <mxGeometry x="740" y="1244.9999999999998" width="120" height="59" as="geometry" />
        </mxCell>
        <mxCell id="-5aLn5IDz-yiHX2ItAhz-46" value="" style="endArrow=none;dashed=1;html=1;rounded=0;entryX=0.125;entryY=-0.05;entryDx=0;entryDy=0;entryPerimeter=0;" parent="1" edge="1">
          <mxGeometry width="50" height="50" relative="1" as="geometry">
            <mxPoint x="425.5" y="1569.9999999999998" as="sourcePoint" />
            <mxPoint x="424.5" y="1238.9999999999998" as="targetPoint" />
          </mxGeometry>
        </mxCell>
        <mxCell id="-5aLn5IDz-yiHX2ItAhz-45" value="" style="endArrow=none;dashed=1;html=1;rounded=0;entryX=0.125;entryY=-0.05;entryDx=0;entryDy=0;entryPerimeter=0;" parent="1" edge="1">
          <mxGeometry width="50" height="50" relative="1" as="geometry">
            <mxPoint x="390.5" y="1570.9999999999998" as="sourcePoint" />
            <mxPoint x="389.5" y="1239.9999999999998" as="targetPoint" />
          </mxGeometry>
        </mxCell>
        <mxCell id="-5aLn5IDz-yiHX2ItAhz-44" value="" style="endArrow=none;dashed=1;html=1;rounded=0;entryX=0.125;entryY=-0.05;entryDx=0;entryDy=0;entryPerimeter=0;" parent="1" target="-5aLn5IDz-yiHX2ItAhz-43" edge="1">
          <mxGeometry width="50" height="50" relative="1" as="geometry">
            <mxPoint x="366" y="1569.9999999999998" as="sourcePoint" />
            <mxPoint x="380" y="1349.9999999999998" as="targetPoint" />
          </mxGeometry>
        </mxCell>
        <mxCell id="-5aLn5IDz-yiHX2ItAhz-24" value="Palya" style="rounded=0;whiteSpace=wrap;html=1;" parent="1" vertex="1">
          <mxGeometry x="350" y="1179.9999999999998" width="120" height="59" as="geometry" />
        </mxCell>
        <mxCell id="-5aLn5IDz-yiHX2ItAhz-23" value="Palya" style="rounded=0;whiteSpace=wrap;html=1;" parent="1" vertex="1">
          <mxGeometry x="340" y="1169.9999999999998" width="120" height="59" as="geometry" />
        </mxCell>
        <mxCell id="-5aLn5IDz-yiHX2ItAhz-4" value="" style="rounded=0;whiteSpace=wrap;html=1;" parent="1" vertex="1">
          <mxGeometry x="530" y="929.9999999999998" width="120" height="59" as="geometry" />
        </mxCell>
        <mxCell id="-5aLn5IDz-yiHX2ItAhz-3" value="" style="rounded=0;whiteSpace=wrap;html=1;" parent="1" vertex="1">
          <mxGeometry x="520" y="919.9999999999998" width="120" height="59" as="geometry" />
        </mxCell>
        <mxCell id="tQPfZLa-1JDw5LYKSxju-6" style="edgeStyle=none;curved=1;rounded=0;orthogonalLoop=1;jettySize=auto;html=1;exitX=0.5;exitY=0.5;exitDx=0;exitDy=0;exitPerimeter=0;entryX=0;entryY=0.5;entryDx=0;entryDy=0;fontSize=12;startSize=8;endSize=8;" parent="1" source="RCcNGVWDQ_7rDxmdVCuK-1" target="tQPfZLa-1JDw5LYKSxju-1" edge="1">
          <mxGeometry relative="1" as="geometry" />
        </mxCell>
        <mxCell id="tQPfZLa-1JDw5LYKSxju-7" style="edgeStyle=none;curved=1;rounded=0;orthogonalLoop=1;jettySize=auto;html=1;exitX=0.5;exitY=0.5;exitDx=0;exitDy=0;exitPerimeter=0;entryX=0;entryY=0.5;entryDx=0;entryDy=0;fontSize=12;startSize=8;endSize=8;" parent="1" source="RCcNGVWDQ_7rDxmdVCuK-1" target="RCcNGVWDQ_7rDxmdVCuK-3" edge="1">
          <mxGeometry relative="1" as="geometry" />
        </mxCell>
        <mxCell id="tQPfZLa-1JDw5LYKSxju-8" style="edgeStyle=none;curved=1;rounded=0;orthogonalLoop=1;jettySize=auto;html=1;exitX=0.5;exitY=0.5;exitDx=0;exitDy=0;exitPerimeter=0;entryX=0;entryY=0.5;entryDx=0;entryDy=0;fontSize=12;startSize=8;endSize=8;" parent="1" source="RCcNGVWDQ_7rDxmdVCuK-1" target="RCcNGVWDQ_7rDxmdVCuK-10" edge="1">
          <mxGeometry relative="1" as="geometry" />
        </mxCell>
        <mxCell id="tQPfZLa-1JDw5LYKSxju-20" style="edgeStyle=none;curved=1;rounded=0;orthogonalLoop=1;jettySize=auto;html=1;exitX=0.5;exitY=0.5;exitDx=0;exitDy=0;exitPerimeter=0;entryX=0;entryY=0.5;entryDx=0;entryDy=0;fontSize=12;startSize=8;endSize=8;" parent="1" source="RCcNGVWDQ_7rDxmdVCuK-1" target="tQPfZLa-1JDw5LYKSxju-16" edge="1">
          <mxGeometry relative="1" as="geometry" />
        </mxCell>
        <mxCell id="tQPfZLa-1JDw5LYKSxju-32" style="edgeStyle=none;curved=1;rounded=0;orthogonalLoop=1;jettySize=auto;html=1;exitX=0.5;exitY=0.5;exitDx=0;exitDy=0;exitPerimeter=0;entryX=0;entryY=0.5;entryDx=0;entryDy=0;fontSize=12;startSize=8;endSize=8;" parent="1" source="RCcNGVWDQ_7rDxmdVCuK-1" target="tQPfZLa-1JDw5LYKSxju-28" edge="1">
          <mxGeometry relative="1" as="geometry" />
        </mxCell>
        <mxCell id="tQPfZLa-1JDw5LYKSxju-34" style="edgeStyle=none;curved=1;rounded=0;orthogonalLoop=1;jettySize=auto;html=1;exitX=0.5;exitY=0.5;exitDx=0;exitDy=0;exitPerimeter=0;entryX=0;entryY=0.5;entryDx=0;entryDy=0;fontSize=12;startSize=8;endSize=8;" parent="1" source="RCcNGVWDQ_7rDxmdVCuK-1" target="tQPfZLa-1JDw5LYKSxju-29" edge="1">
          <mxGeometry relative="1" as="geometry" />
        </mxCell>
        <mxCell id="tQPfZLa-1JDw5LYKSxju-35" style="edgeStyle=none;curved=1;rounded=0;orthogonalLoop=1;jettySize=auto;html=1;exitX=0.5;exitY=0.5;exitDx=0;exitDy=0;exitPerimeter=0;entryX=0;entryY=0.5;entryDx=0;entryDy=0;fontSize=12;startSize=8;endSize=8;" parent="1" source="RCcNGVWDQ_7rDxmdVCuK-1" target="tQPfZLa-1JDw5LYKSxju-30" edge="1">
          <mxGeometry relative="1" as="geometry" />
        </mxCell>
        <mxCell id="RCcNGVWDQ_7rDxmdVCuK-1" value="klubtag" style="shape=umlActor;verticalLabelPosition=bottom;verticalAlign=top;html=1;outlineConnect=0;" parent="1" vertex="1">
          <mxGeometry x="9" y="85" width="30" height="60" as="geometry" />
        </mxCell>
        <mxCell id="RCcNGVWDQ_7rDxmdVCuK-3" value="Foglalas" style="ellipse;whiteSpace=wrap;html=1;" parent="1" vertex="1">
          <mxGeometry x="199" y="20" width="120" height="50" as="geometry" />
        </mxCell>
        <mxCell id="RCcNGVWDQ_7rDxmdVCuK-27" style="edgeStyle=orthogonalEdgeStyle;rounded=0;orthogonalLoop=1;jettySize=auto;html=1;exitX=0;exitY=0;exitDx=0;exitDy=0;entryX=0;entryY=1;entryDx=0;entryDy=0;" parent="1" source="RCcNGVWDQ_7rDxmdVCuK-6" target="RCcNGVWDQ_7rDxmdVCuK-7" edge="1">
          <mxGeometry relative="1" as="geometry" />
        </mxCell>
        <mxCell id="RCcNGVWDQ_7rDxmdVCuK-6" value="TorolPalya" style="ellipse;whiteSpace=wrap;html=1;" parent="1" vertex="1">
          <mxGeometry x="649" y="60" width="120" height="50" as="geometry" />
        </mxCell>
        <mxCell id="RCcNGVWDQ_7rDxmdVCuK-7" value="UjP&lt;span style=&quot;background-color: transparent; color: light-dark(rgb(0, 0, 0), rgb(255, 255, 255));&quot;&gt;alya&lt;/span&gt;" style="ellipse;whiteSpace=wrap;html=1;" parent="1" vertex="1">
          <mxGeometry x="649" width="120" height="50" as="geometry" />
        </mxCell>
        <mxCell id="tQPfZLa-1JDw5LYKSxju-4" style="edgeStyle=none;curved=1;rounded=0;orthogonalLoop=1;jettySize=auto;html=1;exitX=0.5;exitY=0.5;exitDx=0;exitDy=0;exitPerimeter=0;entryX=1;entryY=0.5;entryDx=0;entryDy=0;fontSize=12;startSize=8;endSize=8;" parent="1" source="RCcNGVWDQ_7rDxmdVCuK-8" target="RCcNGVWDQ_7rDxmdVCuK-6" edge="1">
          <mxGeometry relative="1" as="geometry" />
        </mxCell>
        <mxCell id="tQPfZLa-1JDw5LYKSxju-5" style="edgeStyle=none;curved=1;rounded=0;orthogonalLoop=1;jettySize=auto;html=1;exitX=0.5;exitY=0.5;exitDx=0;exitDy=0;exitPerimeter=0;entryX=1;entryY=0.5;entryDx=0;entryDy=0;fontSize=12;startSize=8;endSize=8;" parent="1" source="RCcNGVWDQ_7rDxmdVCuK-8" target="RCcNGVWDQ_7rDxmdVCuK-7" edge="1">
          <mxGeometry relative="1" as="geometry" />
        </mxCell>
        <mxCell id="tQPfZLa-1JDw5LYKSxju-27" style="edgeStyle=none;curved=1;rounded=0;orthogonalLoop=1;jettySize=auto;html=1;exitX=0.5;exitY=0.5;exitDx=0;exitDy=0;exitPerimeter=0;entryX=1;entryY=0.5;entryDx=0;entryDy=0;fontSize=12;startSize=8;endSize=8;" parent="1" source="RCcNGVWDQ_7rDxmdVCuK-8" target="tQPfZLa-1JDw5LYKSxju-16" edge="1">
          <mxGeometry relative="1" as="geometry" />
        </mxCell>
        <mxCell id="tQPfZLa-1JDw5LYKSxju-31" style="edgeStyle=none;curved=1;rounded=0;orthogonalLoop=1;jettySize=auto;html=1;exitX=0.5;exitY=0.5;exitDx=0;exitDy=0;exitPerimeter=0;entryX=1;entryY=0.5;entryDx=0;entryDy=0;fontSize=12;startSize=8;endSize=8;" parent="1" source="RCcNGVWDQ_7rDxmdVCuK-8" target="tQPfZLa-1JDw5LYKSxju-1" edge="1">
          <mxGeometry relative="1" as="geometry" />
        </mxCell>
        <mxCell id="tQPfZLa-1JDw5LYKSxju-33" style="edgeStyle=none;curved=1;rounded=0;orthogonalLoop=1;jettySize=auto;html=1;exitX=0.5;exitY=0.5;exitDx=0;exitDy=0;exitPerimeter=0;entryX=1;entryY=0.5;entryDx=0;entryDy=0;fontSize=12;startSize=8;endSize=8;" parent="1" source="RCcNGVWDQ_7rDxmdVCuK-8" target="tQPfZLa-1JDw5LYKSxju-28" edge="1">
          <mxGeometry relative="1" as="geometry" />
        </mxCell>
        <mxCell id="tQPfZLa-1JDw5LYKSxju-36" style="edgeStyle=none;curved=1;rounded=0;orthogonalLoop=1;jettySize=auto;html=1;exitX=0.5;exitY=0.5;exitDx=0;exitDy=0;exitPerimeter=0;entryX=1;entryY=0.5;entryDx=0;entryDy=0;fontSize=12;startSize=8;endSize=8;" parent="1" source="RCcNGVWDQ_7rDxmdVCuK-8" target="tQPfZLa-1JDw5LYKSxju-29" edge="1">
          <mxGeometry relative="1" as="geometry" />
        </mxCell>
        <mxCell id="tQPfZLa-1JDw5LYKSxju-37" style="edgeStyle=none;curved=1;rounded=0;orthogonalLoop=1;jettySize=auto;html=1;exitX=0.5;exitY=0.5;exitDx=0;exitDy=0;exitPerimeter=0;entryX=1;entryY=0.5;entryDx=0;entryDy=0;fontSize=12;startSize=8;endSize=8;" parent="1" source="RCcNGVWDQ_7rDxmdVCuK-8" target="tQPfZLa-1JDw5LYKSxju-30" edge="1">
          <mxGeometry relative="1" as="geometry" />
        </mxCell>
        <mxCell id="RCcNGVWDQ_7rDxmdVCuK-8" value="klub" style="shape=umlActor;verticalLabelPosition=bottom;verticalAlign=top;html=1;outlineConnect=0;" parent="1" vertex="1">
          <mxGeometry x="789" y="120" width="30" height="60" as="geometry" />
        </mxCell>
        <mxCell id="RCcNGVWDQ_7rDxmdVCuK-10" value="Visszamond" style="ellipse;whiteSpace=wrap;html=1;" parent="1" vertex="1">
          <mxGeometry x="199" y="80" width="120" height="50" as="geometry" />
        </mxCell>
        <mxCell id="RCcNGVWDQ_7rDxmdVCuK-13" value="&amp;lt;precedes&amp;gt;" style="text;html=1;align=center;verticalAlign=middle;resizable=0;points=[];autosize=1;strokeColor=none;fillColor=none;" parent="1" vertex="1">
          <mxGeometry x="589" y="40" width="90" height="30" as="geometry" />
        </mxCell>
        <mxCell id="RCcNGVWDQ_7rDxmdVCuK-28" value="&amp;lt;precedes&amp;gt;" style="text;html=1;align=center;verticalAlign=middle;resizable=0;points=[];autosize=1;strokeColor=none;fillColor=none;" parent="1" vertex="1">
          <mxGeometry x="294" y="55" width="90" height="30" as="geometry" />
        </mxCell>
        <mxCell id="RCcNGVWDQ_7rDxmdVCuK-30" value="Klubtag" style="swimlane;whiteSpace=wrap;html=1;" parent="1" vertex="1">
          <mxGeometry x="6.5" y="1760" width="310" height="150" as="geometry" />
        </mxCell>
        <mxCell id="RCcNGVWDQ_7rDxmdVCuK-32" value="+ nev: string&lt;div&gt;+ kedvezmeny: Kedvezmeny&lt;/div&gt;&lt;div&gt;+ foglalasok: &amp;lt;Foglalas&amp;gt;&lt;/div&gt;&lt;div&gt;&lt;br&gt;&lt;/div&gt;&lt;div&gt;+ Klubtag(...)&lt;/div&gt;&lt;div&gt;+ Foglalas(palya: Palya, datum: Int, ora: Int): void&lt;/div&gt;&lt;div&gt;+ Visszamond(foglalas: Foglalas):void&lt;/div&gt;" style="text;html=1;align=left;verticalAlign=middle;resizable=0;points=[];autosize=1;strokeColor=none;fillColor=none;" parent="RCcNGVWDQ_7rDxmdVCuK-30" vertex="1">
          <mxGeometry y="30" width="280" height="110" as="geometry" />
        </mxCell>
        <mxCell id="RCcNGVWDQ_7rDxmdVCuK-33" value="" style="endArrow=none;html=1;rounded=0;entryX=1.005;entryY=0.43;entryDx=0;entryDy=0;entryPerimeter=0;" parent="RCcNGVWDQ_7rDxmdVCuK-30" edge="1">
          <mxGeometry width="50" height="50" relative="1" as="geometry">
            <mxPoint y="84.65" as="sourcePoint" />
            <mxPoint x="309.99999999999994" y="84.5500000000001" as="targetPoint" />
          </mxGeometry>
        </mxCell>
        <mxCell id="RCcNGVWDQ_7rDxmdVCuK-35" value="Palya" style="swimlane;whiteSpace=wrap;html=1;" parent="1" vertex="1">
          <mxGeometry x="334" y="1760" width="220" height="178" as="geometry" />
        </mxCell>
        <mxCell id="RCcNGVWDQ_7rDxmdVCuK-34" value="+ sorszam: int&lt;div&gt;+ fedett: bool&lt;/div&gt;&lt;div&gt;+ Foglalasok: &amp;lt;Foglalas&amp;gt;&lt;/div&gt;&lt;div&gt;+ PalyaTipus: PalyaTipus&lt;/div&gt;&lt;div&gt;&lt;br&gt;&lt;/div&gt;&lt;div&gt;+ Palya(...)&lt;/div&gt;&lt;div&gt;+ Elerheto(datum: int, ora: int): bool&lt;/div&gt;&lt;div&gt;+ SzamolDij(klubtag: Klubtag): int&lt;/div&gt;" style="text;html=1;align=left;verticalAlign=middle;resizable=0;points=[];autosize=1;strokeColor=none;fillColor=none;" parent="RCcNGVWDQ_7rDxmdVCuK-35" vertex="1">
          <mxGeometry y="40" width="210" height="130" as="geometry" />
        </mxCell>
        <mxCell id="bFtffV7Dq0BiN4H6MrVR-107" value="" style="html=1;labelBackgroundColor=#ffffff;jettySize=auto;orthogonalLoop=1;fontSize=14;rounded=0;jumpStyle=gap;edgeStyle=orthogonalEdgeStyle;startArrow=oval;endArrow=oval;strokeWidth=2;startFill=1;endFill=1;sourcePerimeterSpacing=3;targetPerimeterSpacing=3;" parent="RCcNGVWDQ_7rDxmdVCuK-35" edge="1">
          <mxGeometry width="48" height="48" relative="1" as="geometry">
            <mxPoint x="416" y="160" as="sourcePoint" />
            <mxPoint x="216" y="160" as="targetPoint" />
            <Array as="points">
              <mxPoint x="211" y="160" />
            </Array>
          </mxGeometry>
        </mxCell>
        <mxCell id="RCcNGVWDQ_7rDxmdVCuK-37" value="Foglalas" style="swimlane;whiteSpace=wrap;html=1;" parent="1" vertex="1">
          <mxGeometry x="610" y="1759.9999999999998" width="180" height="140" as="geometry" />
        </mxCell>
        <mxCell id="4rPIcV-lHyRuGQjlF1An-25" style="edgeStyle=orthogonalEdgeStyle;rounded=0;orthogonalLoop=1;jettySize=auto;html=1;endArrow=diamondThin;endFill=0;endSize=12;" parent="RCcNGVWDQ_7rDxmdVCuK-37" source="RCcNGVWDQ_7rDxmdVCuK-38" edge="1">
          <mxGeometry relative="1" as="geometry">
            <mxPoint x="-60" y="75.00000000000023" as="targetPoint" />
            <Array as="points">
              <mxPoint x="-24" y="75" />
              <mxPoint x="-60" y="76" />
            </Array>
          </mxGeometry>
        </mxCell>
        <mxCell id="RCcNGVWDQ_7rDxmdVCuK-38" value="+ klubtag: Klubtag&lt;div&gt;+ palya: Palya&lt;/div&gt;&lt;div&gt;+ datum: Int&lt;/div&gt;&lt;div&gt;+ ora: Int&lt;/div&gt;&lt;div&gt;+ dij: Int&lt;/div&gt;&lt;div&gt;&lt;br&gt;&lt;/div&gt;&lt;div&gt;+ Foglalas(...)&lt;/div&gt;" style="text;html=1;align=left;verticalAlign=middle;resizable=0;points=[];autosize=1;strokeColor=none;fillColor=none;" parent="RCcNGVWDQ_7rDxmdVCuK-37" vertex="1">
          <mxGeometry y="25" width="120" height="110" as="geometry" />
        </mxCell>
        <mxCell id="RCcNGVWDQ_7rDxmdVCuK-40" value="" style="endArrow=none;html=1;rounded=0;" parent="RCcNGVWDQ_7rDxmdVCuK-37" edge="1">
          <mxGeometry width="50" height="50" relative="1" as="geometry">
            <mxPoint y="100" as="sourcePoint" />
            <mxPoint x="181" y="100.00000000000023" as="targetPoint" />
            <Array as="points">
              <mxPoint y="100" />
            </Array>
          </mxGeometry>
        </mxCell>
        <mxCell id="RCcNGVWDQ_7rDxmdVCuK-39" value="" style="endArrow=none;html=1;rounded=0;" parent="1" source="RCcNGVWDQ_7rDxmdVCuK-34" edge="1">
          <mxGeometry width="50" height="50" relative="1" as="geometry">
            <mxPoint x="414" y="1829.9999999999998" as="sourcePoint" />
            <mxPoint x="554" y="1869.9999999999998" as="targetPoint" />
            <Array as="points">
              <mxPoint x="334" y="1869.9999999999998" />
            </Array>
          </mxGeometry>
        </mxCell>
        <mxCell id="RCcNGVWDQ_7rDxmdVCuK-41" value="Teniszklub" style="swimlane;whiteSpace=wrap;html=1;" parent="1" vertex="1">
          <mxGeometry x="185" y="1989.9999999999998" width="390" height="190" as="geometry" />
        </mxCell>
        <mxCell id="RCcNGVWDQ_7rDxmdVCuK-44" value="" style="endArrow=none;html=1;rounded=0;" parent="RCcNGVWDQ_7rDxmdVCuK-41" edge="1">
          <mxGeometry width="50" height="50" relative="1" as="geometry">
            <mxPoint x="160" y="60" as="sourcePoint" />
            <mxPoint x="380" y="60" as="targetPoint" />
            <Array as="points">
              <mxPoint y="60" />
              <mxPoint x="160" y="60" />
            </Array>
          </mxGeometry>
        </mxCell>
        <mxCell id="RCcNGVWDQ_7rDxmdVCuK-42" value="+ Palyak: &amp;lt;Palya&amp;gt;&lt;div&gt;+ Klubtagok &amp;lt;Klubtag&amp;gt;&lt;/div&gt;&lt;div&gt;&lt;br&gt;&lt;/div&gt;&lt;div&gt;+ Teniszklub()&lt;/div&gt;&lt;div&gt;+ UjPalya(sorszam: int, boritas: Boritas, fedett: bool):void&lt;/div&gt;&lt;div&gt;+ TorolPalya(sorszam: int):void&lt;/div&gt;&lt;div&gt;+ UjKlubtag(nev: string, kedvezmeny: Kedvezmeny):void&lt;/div&gt;&lt;div&gt;+ KeressSzabadPalyakat(datum: int, ora: int, boritas: Boritas):&amp;lt;Palya&amp;gt;&lt;/div&gt;&lt;div&gt;+ FoglalasLekerdezes(Klubtag: klubtag, datum: int):&amp;lt;int, int&amp;gt;&lt;/div&gt;&lt;div&gt;+ NapiKoltseg(Klubtag: klubtag, datum: int):int&lt;/div&gt;&lt;div&gt;+ BevetelekIdoszakra(kezdet: int, veg: int):int&lt;/div&gt;" style="text;html=1;align=left;verticalAlign=middle;resizable=0;points=[];autosize=1;strokeColor=none;fillColor=none;" parent="RCcNGVWDQ_7rDxmdVCuK-41" vertex="1">
          <mxGeometry y="20" width="390" height="170" as="geometry" />
        </mxCell>
        <mxCell id="tQPfZLa-1JDw5LYKSxju-1" value="UjKlubtag" style="ellipse;whiteSpace=wrap;html=1;" parent="1" vertex="1">
          <mxGeometry x="79" y="320" width="120" height="50" as="geometry" />
        </mxCell>
        <mxCell id="tQPfZLa-1JDw5LYKSxju-15" value="&amp;lt;precedes&amp;gt;" style="text;html=1;align=center;verticalAlign=middle;resizable=0;points=[];autosize=1;strokeColor=none;fillColor=none;" parent="1" vertex="1">
          <mxGeometry x="69" y="270" width="90" height="30" as="geometry" />
        </mxCell>
        <mxCell id="tQPfZLa-1JDw5LYKSxju-16" value="KeressSzabadPalyakat" style="ellipse;whiteSpace=wrap;html=1;" parent="1" vertex="1">
          <mxGeometry x="359" y="120" width="140" height="50" as="geometry" />
        </mxCell>
        <mxCell id="tQPfZLa-1JDw5LYKSxju-17" value="" style="endArrow=none;dashed=1;html=1;rounded=0;fontSize=12;startSize=8;endSize=8;curved=1;entryX=0;entryY=0.5;entryDx=0;entryDy=0;exitX=0;exitY=0;exitDx=0;exitDy=0;" parent="1" source="tQPfZLa-1JDw5LYKSxju-1" target="RCcNGVWDQ_7rDxmdVCuK-3" edge="1">
          <mxGeometry width="50" height="50" relative="1" as="geometry">
            <mxPoint x="89" y="190" as="sourcePoint" />
            <mxPoint x="139" y="140" as="targetPoint" />
          </mxGeometry>
        </mxCell>
        <mxCell id="tQPfZLa-1JDw5LYKSxju-19" value="" style="endArrow=none;dashed=1;html=1;rounded=0;fontSize=12;startSize=8;endSize=8;curved=1;exitX=0.923;exitY=0.214;exitDx=0;exitDy=0;exitPerimeter=0;" parent="1" source="RCcNGVWDQ_7rDxmdVCuK-10" edge="1">
          <mxGeometry width="50" height="50" relative="1" as="geometry">
            <mxPoint x="309" y="85" as="sourcePoint" />
            <mxPoint x="309" y="55" as="targetPoint" />
          </mxGeometry>
        </mxCell>
        <mxCell id="tQPfZLa-1JDw5LYKSxju-21" value="" style="endArrow=none;dashed=1;html=1;rounded=0;fontSize=12;startSize=8;endSize=8;curved=1;entryX=0.056;entryY=0.756;entryDx=0;entryDy=0;entryPerimeter=0;exitX=0.918;exitY=0.212;exitDx=0;exitDy=0;exitPerimeter=0;" parent="1" source="tQPfZLa-1JDw5LYKSxju-1" target="tQPfZLa-1JDw5LYKSxju-16" edge="1">
          <mxGeometry width="50" height="50" relative="1" as="geometry">
            <mxPoint x="179" y="190" as="sourcePoint" />
            <mxPoint x="219" y="160" as="targetPoint" />
          </mxGeometry>
        </mxCell>
        <mxCell id="tQPfZLa-1JDw5LYKSxju-25" value="&amp;lt;precedes&amp;gt;" style="text;html=1;align=center;verticalAlign=middle;resizable=0;points=[];autosize=1;strokeColor=none;fillColor=none;rotation=-45;" parent="1" vertex="1">
          <mxGeometry x="179" y="270" width="90" height="30" as="geometry" />
        </mxCell>
        <mxCell id="tQPfZLa-1JDw5LYKSxju-28" value="FoglalasLekerdezes" style="ellipse;whiteSpace=wrap;html=1;" parent="1" vertex="1">
          <mxGeometry x="369" y="180" width="120" height="50" as="geometry" />
        </mxCell>
        <mxCell id="tQPfZLa-1JDw5LYKSxju-29" value="NapiKoltseg" style="ellipse;whiteSpace=wrap;html=1;" parent="1" vertex="1">
          <mxGeometry x="369" y="240" width="120" height="50" as="geometry" />
        </mxCell>
        <mxCell id="tQPfZLa-1JDw5LYKSxju-30" value="BevetelekIdoszakra" style="ellipse;whiteSpace=wrap;html=1;" parent="1" vertex="1">
          <mxGeometry x="369" y="300" width="120" height="50" as="geometry" />
        </mxCell>
        <mxCell id="tQPfZLa-1JDw5LYKSxju-38" value="" style="endArrow=none;dashed=1;html=1;rounded=0;fontSize=12;startSize=8;endSize=8;curved=1;entryX=0;entryY=1;entryDx=0;entryDy=0;exitX=0.932;exitY=0.292;exitDx=0;exitDy=0;exitPerimeter=0;" parent="1" source="tQPfZLa-1JDw5LYKSxju-1" target="tQPfZLa-1JDw5LYKSxju-28" edge="1">
          <mxGeometry width="50" height="50" relative="1" as="geometry">
            <mxPoint x="199" y="341" as="sourcePoint" />
            <mxPoint x="377" y="168" as="targetPoint" />
          </mxGeometry>
        </mxCell>
        <mxCell id="tQPfZLa-1JDw5LYKSxju-39" value="" style="endArrow=none;dashed=1;html=1;rounded=0;fontSize=12;startSize=8;endSize=8;curved=1;entryX=0;entryY=0.5;entryDx=0;entryDy=0;exitX=1;exitY=0.5;exitDx=0;exitDy=0;" parent="1" source="tQPfZLa-1JDw5LYKSxju-1" target="tQPfZLa-1JDw5LYKSxju-29" edge="1">
          <mxGeometry width="50" height="50" relative="1" as="geometry">
            <mxPoint x="201" y="345" as="sourcePoint" />
            <mxPoint x="397" y="233" as="targetPoint" />
          </mxGeometry>
        </mxCell>
        <mxCell id="tQPfZLa-1JDw5LYKSxju-40" value="" style="endArrow=none;dashed=1;html=1;rounded=0;fontSize=12;startSize=8;endSize=8;curved=1;entryX=0;entryY=1;entryDx=0;entryDy=0;exitX=1;exitY=1;exitDx=0;exitDy=0;" parent="1" source="tQPfZLa-1JDw5LYKSxju-1" target="tQPfZLa-1JDw5LYKSxju-30" edge="1">
          <mxGeometry width="50" height="50" relative="1" as="geometry">
            <mxPoint x="209" y="355" as="sourcePoint" />
            <mxPoint x="379" y="275" as="targetPoint" />
          </mxGeometry>
        </mxCell>
        <mxCell id="tQPfZLa-1JDw5LYKSxju-41" value="&amp;lt;precedes&amp;gt;" style="text;html=1;align=center;verticalAlign=middle;resizable=0;points=[];autosize=1;strokeColor=none;fillColor=none;" parent="1" vertex="1">
          <mxGeometry x="244" y="350" width="90" height="30" as="geometry" />
        </mxCell>
        <mxCell id="-5aLn5IDz-yiHX2ItAhz-5" style="edgeStyle=orthogonalEdgeStyle;rounded=0;orthogonalLoop=1;jettySize=auto;html=1;exitX=0.5;exitY=0.5;exitDx=0;exitDy=0;exitPerimeter=0;entryX=0;entryY=0.5;entryDx=0;entryDy=0;" parent="1" source="tQPfZLa-1JDw5LYKSxju-43" target="-5aLn5IDz-yiHX2ItAhz-1" edge="1">
          <mxGeometry relative="1" as="geometry" />
        </mxCell>
        <mxCell id="tQPfZLa-1JDw5LYKSxju-43" value="klubtag" style="shape=umlActor;verticalLabelPosition=bottom;verticalAlign=top;html=1;outlineConnect=0;" parent="1" vertex="1">
          <mxGeometry x="10" y="909.9999999999998" width="30" height="59" as="geometry" />
        </mxCell>
        <mxCell id="-5aLn5IDz-yiHX2ItAhz-15" style="edgeStyle=orthogonalEdgeStyle;rounded=0;orthogonalLoop=1;jettySize=auto;html=1;exitX=0.5;exitY=0.5;exitDx=0;exitDy=0;exitPerimeter=0;entryX=0;entryY=0.75;entryDx=0;entryDy=0;" parent="1" source="tQPfZLa-1JDw5LYKSxju-44" target="-5aLn5IDz-yiHX2ItAhz-2" edge="1">
          <mxGeometry relative="1" as="geometry" />
        </mxCell>
        <mxCell id="tQPfZLa-1JDw5LYKSxju-44" value="klub" style="shape=umlActor;verticalLabelPosition=bottom;verticalAlign=top;html=1;outlineConnect=0;" parent="1" vertex="1">
          <mxGeometry x="400" y="1019.9999999999998" width="30" height="59" as="geometry" />
        </mxCell>
        <mxCell id="-5aLn5IDz-yiHX2ItAhz-1" value="Foglalas" style="rounded=0;whiteSpace=wrap;html=1;" parent="1" vertex="1">
          <mxGeometry x="230" y="909.9999999999998" width="120" height="59" as="geometry" />
        </mxCell>
        <mxCell id="-5aLn5IDz-yiHX2ItAhz-2" value="Palya" style="rounded=0;whiteSpace=wrap;html=1;" parent="1" vertex="1">
          <mxGeometry x="510" y="909.9999999999998" width="120" height="59" as="geometry" />
        </mxCell>
        <mxCell id="-5aLn5IDz-yiHX2ItAhz-11" style="edgeStyle=orthogonalEdgeStyle;rounded=0;orthogonalLoop=1;jettySize=auto;html=1;exitX=0.5;exitY=0.5;exitDx=0;exitDy=0;exitPerimeter=0;entryX=0.5;entryY=0.5;entryDx=0;entryDy=0;entryPerimeter=0;" parent="1" source="tQPfZLa-1JDw5LYKSxju-43" target="tQPfZLa-1JDw5LYKSxju-44" edge="1">
          <mxGeometry relative="1" as="geometry">
            <Array as="points">
              <mxPoint x="25" y="1049.9999999999998" />
              <mxPoint x="405" y="1049.9999999999998" />
            </Array>
          </mxGeometry>
        </mxCell>
        <mxCell id="-5aLn5IDz-yiHX2ItAhz-12" value="Foglalas()&lt;div&gt;Visszamond()&lt;/div&gt;" style="text;html=1;align=center;verticalAlign=middle;whiteSpace=wrap;rounded=0;" parent="1" vertex="1">
          <mxGeometry x="100" y="909.9999999999998" width="60" height="29" as="geometry" />
        </mxCell>
        <mxCell id="-5aLn5IDz-yiHX2ItAhz-13" value="UjKlubtag()&lt;div&gt;KeressSzabadPalyakat()&lt;/div&gt;&lt;div&gt;FoglalasLekerdezes()&lt;/div&gt;&lt;div&gt;NapiKoltseg()&lt;/div&gt;&lt;div&gt;bevetelekIdoszakra()&lt;/div&gt;" style="text;html=1;align=center;verticalAlign=middle;whiteSpace=wrap;rounded=0;" parent="1" vertex="1">
          <mxGeometry x="170" y="1069.9999999999998" width="60" height="29" as="geometry" />
        </mxCell>
        <mxCell id="-5aLn5IDz-yiHX2ItAhz-16" value="UjPalya()&lt;div&gt;TorolPalya()&lt;/div&gt;" style="text;html=1;align=center;verticalAlign=middle;whiteSpace=wrap;rounded=0;" parent="1" vertex="1">
          <mxGeometry x="470" y="999.9999999999998" width="60" height="29" as="geometry" />
        </mxCell>
        <mxCell id="-5aLn5IDz-yiHX2ItAhz-17" style="edgeStyle=orthogonalEdgeStyle;rounded=0;orthogonalLoop=1;jettySize=auto;html=1;exitX=1;exitY=1;exitDx=0;exitDy=0;entryX=0.5;entryY=0;entryDx=0;entryDy=0;entryPerimeter=0;" parent="1" source="-5aLn5IDz-yiHX2ItAhz-75" target="tQPfZLa-1JDw5LYKSxju-44" edge="1">
          <mxGeometry relative="1" as="geometry">
            <Array as="points">
              <mxPoint x="380" y="989.9999999999998" />
              <mxPoint x="380" y="999.9999999999998" />
              <mxPoint x="415" y="999.9999999999998" />
            </Array>
          </mxGeometry>
        </mxCell>
        <mxCell id="-5aLn5IDz-yiHX2ItAhz-18" value="Main()" style="shape=umlActor;verticalLabelPosition=bottom;verticalAlign=top;html=1;outlineConnect=0;" parent="1" vertex="1">
          <mxGeometry x="50" y="1139.9999999999998" width="30" height="59" as="geometry" />
        </mxCell>
        <mxCell id="-5aLn5IDz-yiHX2ItAhz-19" value="TeniszKlub" style="rounded=0;whiteSpace=wrap;html=1;" parent="1" vertex="1">
          <mxGeometry x="150" y="1159.9999999999998" width="120" height="59" as="geometry" />
        </mxCell>
        <mxCell id="-5aLn5IDz-yiHX2ItAhz-20" value="Klubtag" style="rounded=0;whiteSpace=wrap;html=1;" parent="1" vertex="1">
          <mxGeometry x="730" y="1234.9999999999998" width="120" height="59" as="geometry" />
        </mxCell>
        <mxCell id="-5aLn5IDz-yiHX2ItAhz-21" value="Foglalas" style="rounded=0;whiteSpace=wrap;html=1;" parent="1" vertex="1">
          <mxGeometry x="500" y="1169.9999999999998" width="120" height="59" as="geometry" />
        </mxCell>
        <mxCell id="-5aLn5IDz-yiHX2ItAhz-22" value="Palya" style="rounded=0;whiteSpace=wrap;html=1;" parent="1" vertex="1">
          <mxGeometry x="330" y="1159.9999999999998" width="120" height="59" as="geometry" />
        </mxCell>
        <mxCell id="-5aLn5IDz-yiHX2ItAhz-29" style="edgeStyle=orthogonalEdgeStyle;rounded=0;orthogonalLoop=1;jettySize=auto;html=1;exitX=1;exitY=0;exitDx=0;exitDy=0;entryX=0;entryY=0;entryDx=0;entryDy=0;" parent="1" source="-5aLn5IDz-yiHX2ItAhz-26" target="-5aLn5IDz-yiHX2ItAhz-28" edge="1">
          <mxGeometry relative="1" as="geometry">
            <Array as="points">
              <mxPoint x="140" y="1229.9999999999998" />
              <mxPoint x="140" y="1229.9999999999998" />
            </Array>
          </mxGeometry>
        </mxCell>
        <mxCell id="-5aLn5IDz-yiHX2ItAhz-26" value="" style="rounded=0;whiteSpace=wrap;html=1;" parent="1" vertex="1">
          <mxGeometry x="60" y="1229.9999999999998" width="10" height="339" as="geometry" />
        </mxCell>
        <mxCell id="-5aLn5IDz-yiHX2ItAhz-28" value="" style="rounded=0;whiteSpace=wrap;html=1;" parent="1" vertex="1">
          <mxGeometry x="200" y="1229.9999999999998" width="10" height="339" as="geometry" />
        </mxCell>
        <mxCell id="-5aLn5IDz-yiHX2ItAhz-30" value="&amp;lt;&amp;lt;create&amp;gt;&amp;gt;" style="text;html=1;align=center;verticalAlign=middle;resizable=0;points=[];autosize=1;strokeColor=none;fillColor=none;" parent="1" vertex="1">
          <mxGeometry x="90" y="1229.9999999999998" width="80" height="30" as="geometry" />
        </mxCell>
        <mxCell id="-5aLn5IDz-yiHX2ItAhz-36" style="edgeStyle=orthogonalEdgeStyle;rounded=0;orthogonalLoop=1;jettySize=auto;html=1;exitX=0;exitY=1;exitDx=0;exitDy=0;entryX=0.967;entryY=0.268;entryDx=0;entryDy=0;entryPerimeter=0;" parent="1" source="-5aLn5IDz-yiHX2ItAhz-31" target="-5aLn5IDz-yiHX2ItAhz-28" edge="1">
          <mxGeometry relative="1" as="geometry">
            <Array as="points">
              <mxPoint x="210" y="1319.9999999999998" />
            </Array>
          </mxGeometry>
        </mxCell>
        <mxCell id="-5aLn5IDz-yiHX2ItAhz-31" value="" style="rounded=0;whiteSpace=wrap;html=1;" parent="1" vertex="1">
          <mxGeometry x="360" y="1249.9999999999998" width="10" height="69" as="geometry" />
        </mxCell>
        <mxCell id="-5aLn5IDz-yiHX2ItAhz-70" style="edgeStyle=orthogonalEdgeStyle;rounded=0;orthogonalLoop=1;jettySize=auto;html=1;exitX=1;exitY=1;exitDx=0;exitDy=0;entryX=0;entryY=1;entryDx=0;entryDy=0;" parent="1" source="-5aLn5IDz-yiHX2ItAhz-32" target="-5aLn5IDz-yiHX2ItAhz-65" edge="1">
          <mxGeometry relative="1" as="geometry">
            <Array as="points">
              <mxPoint x="480" y="1409.9999999999998" />
              <mxPoint x="480" y="1409.9999999999998" />
            </Array>
          </mxGeometry>
        </mxCell>
        <mxCell id="-5aLn5IDz-yiHX2ItAhz-32" value="" style="rounded=0;whiteSpace=wrap;html=1;" parent="1" vertex="1">
          <mxGeometry x="385" y="1349.9999999999998" width="10" height="59" as="geometry" />
        </mxCell>
        <mxCell id="-5aLn5IDz-yiHX2ItAhz-33" value="" style="rounded=0;whiteSpace=wrap;html=1;" parent="1" vertex="1">
          <mxGeometry x="420" y="1249.9999999999998" width="10" height="319" as="geometry" />
        </mxCell>
        <mxCell id="-5aLn5IDz-yiHX2ItAhz-34" value="" style="endArrow=classic;html=1;rounded=0;entryX=0;entryY=0;entryDx=0;entryDy=0;exitX=0.792;exitY=0.064;exitDx=0;exitDy=0;exitPerimeter=0;" parent="1" source="-5aLn5IDz-yiHX2ItAhz-28" target="-5aLn5IDz-yiHX2ItAhz-31" edge="1">
          <mxGeometry width="50" height="50" relative="1" as="geometry">
            <mxPoint x="211" y="1249.9999999999998" as="sourcePoint" />
            <mxPoint x="270" y="1269.9999999999998" as="targetPoint" />
          </mxGeometry>
        </mxCell>
        <mxCell id="-5aLn5IDz-yiHX2ItAhz-35" value="&amp;lt;&amp;lt;create&amp;gt;&amp;gt;" style="text;html=1;align=center;verticalAlign=middle;resizable=0;points=[];autosize=1;strokeColor=none;fillColor=none;" parent="1" vertex="1">
          <mxGeometry x="245" y="1249.9999999999998" width="80" height="30" as="geometry" />
        </mxCell>
        <mxCell id="-5aLn5IDz-yiHX2ItAhz-37" value="&amp;lt;&amp;lt;delete&amp;gt;&amp;gt;" style="text;html=1;align=center;verticalAlign=middle;resizable=0;points=[];autosize=1;strokeColor=none;fillColor=none;" parent="1" vertex="1">
          <mxGeometry x="245" y="1299.9999999999998" width="80" height="30" as="geometry" />
        </mxCell>
        <mxCell id="-5aLn5IDz-yiHX2ItAhz-38" value="" style="endArrow=classic;html=1;rounded=0;entryX=0;entryY=0;entryDx=0;entryDy=0;exitX=1.3;exitY=0.352;exitDx=0;exitDy=0;exitPerimeter=0;" parent="1" source="-5aLn5IDz-yiHX2ItAhz-28" edge="1">
          <mxGeometry width="50" height="50" relative="1" as="geometry">
            <mxPoint x="233" y="1351.9999999999998" as="sourcePoint" />
            <mxPoint x="385" y="1349.9999999999998" as="targetPoint" />
          </mxGeometry>
        </mxCell>
        <mxCell id="-5aLn5IDz-yiHX2ItAhz-39" value="&amp;lt;&amp;lt;delete&amp;gt;&amp;gt;" style="text;html=1;align=center;verticalAlign=middle;resizable=0;points=[];autosize=1;strokeColor=none;fillColor=none;" parent="1" vertex="1">
          <mxGeometry x="265" y="1399.9999999999998" width="80" height="30" as="geometry" />
        </mxCell>
        <mxCell id="-5aLn5IDz-yiHX2ItAhz-40" style="edgeStyle=orthogonalEdgeStyle;rounded=0;orthogonalLoop=1;jettySize=auto;html=1;exitX=0;exitY=1;exitDx=0;exitDy=0;" parent="1" edge="1">
          <mxGeometry relative="1" as="geometry">
            <mxPoint x="390" y="1409.4999999999998" as="sourcePoint" />
            <mxPoint x="213" y="1411.9999999999998" as="targetPoint" />
            <Array as="points">
              <mxPoint x="302" y="1409.9999999999998" />
              <mxPoint x="214" y="1409.9999999999998" />
              <mxPoint x="214" y="1411.9999999999998" />
            </Array>
          </mxGeometry>
        </mxCell>
        <mxCell id="-5aLn5IDz-yiHX2ItAhz-41" value="&amp;lt;&amp;lt;create&amp;gt;&amp;gt;" style="text;html=1;align=center;verticalAlign=middle;resizable=0;points=[];autosize=1;strokeColor=none;fillColor=none;" parent="1" vertex="1">
          <mxGeometry x="265" y="1339.9999999999998" width="80" height="30" as="geometry" />
        </mxCell>
        <mxCell id="-5aLn5IDz-yiHX2ItAhz-42" value="" style="endArrow=classic;html=1;rounded=0;entryX=0;entryY=0;entryDx=0;entryDy=0;" parent="1" target="-5aLn5IDz-yiHX2ItAhz-33" edge="1">
          <mxGeometry width="50" height="50" relative="1" as="geometry">
            <mxPoint x="210" y="1249.9999999999998" as="sourcePoint" />
            <mxPoint x="380" y="1349.9999999999998" as="targetPoint" />
          </mxGeometry>
        </mxCell>
        <mxCell id="-5aLn5IDz-yiHX2ItAhz-43" value="&amp;lt;&amp;lt;create&amp;gt;&amp;gt;" style="text;html=1;align=center;verticalAlign=middle;resizable=0;points=[];autosize=1;strokeColor=none;fillColor=none;" parent="1" vertex="1">
          <mxGeometry x="355" y="1239.9999999999998" width="80" height="30" as="geometry" />
        </mxCell>
        <mxCell id="-5aLn5IDz-yiHX2ItAhz-47" value="" style="endArrow=classic;html=1;rounded=0;entryX=0;entryY=0.75;entryDx=0;entryDy=0;exitX=1.3;exitY=0.352;exitDx=0;exitDy=0;exitPerimeter=0;" parent="1" target="-5aLn5IDz-yiHX2ItAhz-20" edge="1">
          <mxGeometry width="50" height="50" relative="1" as="geometry">
            <mxPoint x="210" y="1284.4999999999998" as="sourcePoint" />
            <mxPoint x="382" y="1284.4999999999998" as="targetPoint" />
          </mxGeometry>
        </mxCell>
        <mxCell id="-5aLn5IDz-yiHX2ItAhz-48" value="&amp;lt;&amp;lt;create&amp;gt;&amp;gt;" style="text;html=1;align=center;verticalAlign=middle;resizable=0;points=[];autosize=1;strokeColor=none;fillColor=none;" parent="1" vertex="1">
          <mxGeometry x="660" y="1249.9999999999998" width="80" height="30" as="geometry" />
        </mxCell>
        <mxCell id="-5aLn5IDz-yiHX2ItAhz-53" value="" style="endArrow=none;dashed=1;html=1;rounded=0;" parent="1" source="-5aLn5IDz-yiHX2ItAhz-65" edge="1">
          <mxGeometry width="50" height="50" relative="1" as="geometry">
            <mxPoint x="560" y="1569.9999999999998" as="sourcePoint" />
            <mxPoint x="559.5" y="1229.9999999999998" as="targetPoint" />
          </mxGeometry>
        </mxCell>
        <mxCell id="-5aLn5IDz-yiHX2ItAhz-67" style="edgeStyle=orthogonalEdgeStyle;rounded=0;orthogonalLoop=1;jettySize=auto;html=1;exitX=-0.1;exitY=0.099;exitDx=0;exitDy=0;entryX=1;entryY=0;entryDx=0;entryDy=0;exitPerimeter=0;" parent="1" source="-5aLn5IDz-yiHX2ItAhz-55" target="-5aLn5IDz-yiHX2ItAhz-65" edge="1">
          <mxGeometry relative="1" as="geometry">
            <Array as="points">
              <mxPoint x="779" y="1339.9999999999998" />
            </Array>
          </mxGeometry>
        </mxCell>
        <mxCell id="-5aLn5IDz-yiHX2ItAhz-55" value="" style="rounded=0;whiteSpace=wrap;html=1;" parent="1" vertex="1">
          <mxGeometry x="780" y="1314.9999999999998" width="10" height="244" as="geometry" />
        </mxCell>
        <mxCell id="-5aLn5IDz-yiHX2ItAhz-66" value="" style="endArrow=none;dashed=1;html=1;rounded=0;" parent="1" target="-5aLn5IDz-yiHX2ItAhz-65" edge="1">
          <mxGeometry width="50" height="50" relative="1" as="geometry">
            <mxPoint x="560" y="1569.9999999999998" as="sourcePoint" />
            <mxPoint x="559.5" y="1229.9999999999998" as="targetPoint" />
          </mxGeometry>
        </mxCell>
        <mxCell id="-5aLn5IDz-yiHX2ItAhz-69" style="edgeStyle=orthogonalEdgeStyle;rounded=0;orthogonalLoop=1;jettySize=auto;html=1;exitX=0;exitY=0.5;exitDx=0;exitDy=0;entryX=1;entryY=0;entryDx=0;entryDy=0;" parent="1" source="-5aLn5IDz-yiHX2ItAhz-65" target="-5aLn5IDz-yiHX2ItAhz-32" edge="1">
          <mxGeometry relative="1" as="geometry">
            <Array as="points">
              <mxPoint x="555" y="1349.9999999999998" />
            </Array>
          </mxGeometry>
        </mxCell>
        <mxCell id="-5aLn5IDz-yiHX2ItAhz-65" value="" style="rounded=0;whiteSpace=wrap;html=1;" parent="1" vertex="1">
          <mxGeometry x="555" y="1339.9999999999998" width="10" height="69" as="geometry" />
        </mxCell>
        <mxCell id="-5aLn5IDz-yiHX2ItAhz-73" value="" style="rounded=0;whiteSpace=wrap;html=1;" parent="1" vertex="1">
          <mxGeometry x="805" y="1314.9999999999998" width="10" height="244" as="geometry" />
        </mxCell>
        <mxCell id="-5aLn5IDz-yiHX2ItAhz-76" value="" style="endArrow=none;dashed=1;html=1;rounded=0;" parent="1" source="-5aLn5IDz-yiHX2ItAhz-79" edge="1">
          <mxGeometry width="50" height="50" relative="1" as="geometry">
            <mxPoint x="590" y="1569.9999999999998" as="sourcePoint" />
            <mxPoint x="589.5799999999999" y="1229.9999999999998" as="targetPoint" />
          </mxGeometry>
        </mxCell>
        <mxCell id="-5aLn5IDz-yiHX2ItAhz-80" value="" style="endArrow=none;dashed=1;html=1;rounded=0;" parent="1" target="-5aLn5IDz-yiHX2ItAhz-79" edge="1">
          <mxGeometry width="50" height="50" relative="1" as="geometry">
            <mxPoint x="590" y="1569.9999999999998" as="sourcePoint" />
            <mxPoint x="589.5799999999999" y="1229.9999999999998" as="targetPoint" />
          </mxGeometry>
        </mxCell>
        <mxCell id="-5aLn5IDz-yiHX2ItAhz-79" value="" style="rounded=0;whiteSpace=wrap;html=1;" parent="1" vertex="1">
          <mxGeometry x="585" y="1439.9999999999998" width="10" height="69" as="geometry" />
        </mxCell>
        <mxCell id="-5aLn5IDz-yiHX2ItAhz-81" style="edgeStyle=orthogonalEdgeStyle;rounded=0;orthogonalLoop=1;jettySize=auto;html=1;exitX=-0.1;exitY=0.099;exitDx=0;exitDy=0;entryX=1;entryY=0;entryDx=0;entryDy=0;exitPerimeter=0;" parent="1" edge="1">
          <mxGeometry relative="1" as="geometry">
            <mxPoint x="805" y="1439.9999999999998" as="sourcePoint" />
            <mxPoint x="591" y="1440.9999999999998" as="targetPoint" />
            <Array as="points">
              <mxPoint x="805" y="1440.9999999999998" />
            </Array>
          </mxGeometry>
        </mxCell>
        <mxCell id="-5aLn5IDz-yiHX2ItAhz-82" style="edgeStyle=orthogonalEdgeStyle;rounded=0;orthogonalLoop=1;jettySize=auto;html=1;exitX=-0.1;exitY=0.099;exitDx=0;exitDy=0;exitPerimeter=0;" parent="1" edge="1">
          <mxGeometry relative="1" as="geometry">
            <mxPoint x="584" y="1459.9999999999998" as="sourcePoint" />
            <mxPoint x="430" y="1460.9999999999998" as="targetPoint" />
            <Array as="points">
              <mxPoint x="584" y="1460.9999999999998" />
            </Array>
          </mxGeometry>
        </mxCell>
        <mxCell id="-5aLn5IDz-yiHX2ItAhz-83" style="edgeStyle=orthogonalEdgeStyle;rounded=0;orthogonalLoop=1;jettySize=auto;html=1;exitX=1;exitY=1;exitDx=0;exitDy=0;entryX=0;entryY=1;entryDx=0;entryDy=0;" parent="1" edge="1">
          <mxGeometry relative="1" as="geometry">
            <mxPoint x="430" y="1509.9999999999998" as="sourcePoint" />
            <mxPoint x="590" y="1509.9999999999998" as="targetPoint" />
            <Array as="points">
              <mxPoint x="515" y="1509.9999999999998" />
              <mxPoint x="515" y="1509.9999999999998" />
            </Array>
          </mxGeometry>
        </mxCell>
        <mxCell id="-5aLn5IDz-yiHX2ItAhz-84" value="&amp;lt;&amp;lt;create&amp;gt;&amp;gt;" style="text;html=1;align=center;verticalAlign=middle;resizable=0;points=[];autosize=1;strokeColor=none;fillColor=none;" parent="1" vertex="1">
          <mxGeometry x="640" y="1309.9999999999998" width="80" height="30" as="geometry" />
        </mxCell>
        <mxCell id="-5aLn5IDz-yiHX2ItAhz-85" value="&amp;lt;&amp;lt;create&amp;gt;&amp;gt;" style="text;html=1;align=center;verticalAlign=middle;resizable=0;points=[];autosize=1;strokeColor=none;fillColor=none;" parent="1" vertex="1">
          <mxGeometry x="650" y="1409.9999999999998" width="80" height="30" as="geometry" />
        </mxCell>
        <mxCell id="bFtffV7Dq0BiN4H6MrVR-69" style="edgeStyle=orthogonalEdgeStyle;rounded=0;orthogonalLoop=1;jettySize=auto;html=1;exitX=0.5;exitY=1;exitDx=0;exitDy=0;entryX=0;entryY=0.5;entryDx=0;entryDy=0;endArrow=diamondThin;endFill=1;endSize=10;" parent="1" source="wmerD7P6c2fhzKaJmc1H-1" target="wmerD7P6c2fhzKaJmc1H-5" edge="1">
          <mxGeometry relative="1" as="geometry" />
        </mxCell>
        <mxCell id="wmerD7P6c2fhzKaJmc1H-1" value="" style="rounded=0;whiteSpace=wrap;html=1;" parent="1" vertex="1">
          <mxGeometry x="6.5" y="510" width="191" height="90" as="geometry" />
        </mxCell>
        <mxCell id="wmerD7P6c2fhzKaJmc1H-2" value="FutyImre : Klubtag&lt;div&gt;&lt;br&gt;&lt;/div&gt;&lt;div&gt;nev: &quot;Füty Imre&quot;&lt;span style=&quot;white-space: pre;&quot;&gt;&#x9;&lt;/span&gt;&lt;div&gt;kedvezmeny: Nyugdíjas&lt;/div&gt;&lt;div&gt;foglalasok: &amp;lt;Foglalas1&amp;gt;&lt;/div&gt;&lt;div&gt;&lt;br style=&quot;&quot;&gt;&lt;/div&gt;&lt;/div&gt;" style="text;html=1;align=left;verticalAlign=middle;resizable=0;points=[];autosize=1;strokeColor=none;fillColor=none;" parent="1" vertex="1">
          <mxGeometry x="10" y="510" width="150" height="100" as="geometry" />
        </mxCell>
        <mxCell id="wmerD7P6c2fhzKaJmc1H-3" value="" style="endArrow=none;html=1;rounded=0;entryX=0.006;entryY=0.367;entryDx=0;entryDy=0;entryPerimeter=0;" parent="1" target="wmerD7P6c2fhzKaJmc1H-1" edge="1">
          <mxGeometry width="50" height="50" relative="1" as="geometry">
            <mxPoint x="200" y="543" as="sourcePoint" />
            <mxPoint x="200" y="579" as="targetPoint" />
          </mxGeometry>
        </mxCell>
        <mxCell id="wmerD7P6c2fhzKaJmc1H-4" value="&lt;div&gt;&lt;br&gt;&lt;/div&gt;&lt;span style=&quot;text-align: left;&quot;&gt;&lt;div&gt;&lt;span style=&quot;text-align: left;&quot;&gt;Foglalas1 : Foglalas&lt;/span&gt;&lt;/div&gt;&lt;div&gt;&lt;span style=&quot;text-align: left;&quot;&gt;&lt;br&gt;&lt;/span&gt;&lt;/div&gt;klubtag: &quot;Füty Imre&quot;&lt;/span&gt;&lt;div style=&quot;text-align: left;&quot;&gt;palya: Palya1&lt;/div&gt;&lt;div style=&quot;text-align: left;&quot;&gt;datum: 0330&lt;/div&gt;&lt;div style=&quot;text-align: left;&quot;&gt;ora: 13&lt;/div&gt;&lt;div style=&quot;text-align: left;&quot;&gt;dij: 4000&lt;/div&gt;" style="text;html=1;align=center;verticalAlign=middle;resizable=0;points=[];autosize=1;strokeColor=none;fillColor=none;" parent="1" vertex="1">
          <mxGeometry x="132.5" y="639" width="130" height="130" as="geometry" />
        </mxCell>
        <mxCell id="wmerD7P6c2fhzKaJmc1H-7" value="" style="endArrow=none;html=1;rounded=0;" parent="1" edge="1">
          <mxGeometry width="50" height="50" relative="1" as="geometry">
            <mxPoint x="142.5" y="679" as="sourcePoint" />
            <mxPoint x="262.5" y="679" as="targetPoint" />
          </mxGeometry>
        </mxCell>
        <mxCell id="bFtffV7Dq0BiN4H6MrVR-80" style="edgeStyle=orthogonalEdgeStyle;rounded=0;orthogonalLoop=1;jettySize=auto;html=1;exitX=0.25;exitY=0;exitDx=0;exitDy=0;entryX=0.882;entryY=0.833;entryDx=0;entryDy=0;entryPerimeter=0;endArrow=diamondThin;endFill=0;endSize=11;" parent="1" source="wmerD7P6c2fhzKaJmc1H-8" target="bFtffV7Dq0BiN4H6MrVR-41" edge="1">
          <mxGeometry relative="1" as="geometry">
            <mxPoint x="320" y="510" as="targetPoint" />
            <Array as="points">
              <mxPoint x="509" y="490" />
              <mxPoint x="130" y="490" />
            </Array>
          </mxGeometry>
        </mxCell>
        <mxCell id="bFtffV7Dq0BiN4H6MrVR-81" style="edgeStyle=orthogonalEdgeStyle;rounded=0;orthogonalLoop=1;jettySize=auto;html=1;exitX=0.25;exitY=0;exitDx=0;exitDy=0;entryX=1.003;entryY=0.715;entryDx=0;entryDy=0;entryPerimeter=0;endArrow=diamondThin;endFill=0;endSize=11;" parent="1" source="wmerD7P6c2fhzKaJmc1H-8" target="bFtffV7Dq0BiN4H6MrVR-56" edge="1">
          <mxGeometry relative="1" as="geometry">
            <Array as="points">
              <mxPoint x="509" y="480" />
              <mxPoint x="260" y="480" />
            </Array>
          </mxGeometry>
        </mxCell>
        <mxCell id="bFtffV7Dq0BiN4H6MrVR-82" style="edgeStyle=orthogonalEdgeStyle;rounded=0;orthogonalLoop=1;jettySize=auto;html=1;exitX=0.25;exitY=0;exitDx=0;exitDy=0;endArrow=diamondThin;endFill=0;endSize=10;" parent="1" source="wmerD7P6c2fhzKaJmc1H-8" edge="1">
          <mxGeometry relative="1" as="geometry">
            <mxPoint x="420" y="470" as="targetPoint" />
          </mxGeometry>
        </mxCell>
        <mxCell id="bFtffV7Dq0BiN4H6MrVR-83" style="edgeStyle=orthogonalEdgeStyle;rounded=0;orthogonalLoop=1;jettySize=auto;html=1;exitX=0.25;exitY=0;exitDx=0;exitDy=0;endArrow=diamondThin;endFill=0;endSize=10;" parent="1" source="wmerD7P6c2fhzKaJmc1H-8" edge="1">
          <mxGeometry relative="1" as="geometry">
            <mxPoint x="560" y="470" as="targetPoint" />
          </mxGeometry>
        </mxCell>
        <mxCell id="bFtffV7Dq0BiN4H6MrVR-84" style="edgeStyle=orthogonalEdgeStyle;rounded=0;orthogonalLoop=1;jettySize=auto;html=1;exitX=0.25;exitY=0;exitDx=0;exitDy=0;endArrow=diamondThin;endFill=0;endSize=11;" parent="1" source="wmerD7P6c2fhzKaJmc1H-8" edge="1">
          <mxGeometry relative="1" as="geometry">
            <mxPoint x="700.0000000000002" y="470" as="targetPoint" />
          </mxGeometry>
        </mxCell>
        <mxCell id="wmerD7P6c2fhzKaJmc1H-8" value="" style="rounded=0;whiteSpace=wrap;html=1;" parent="1" vertex="1">
          <mxGeometry x="439" y="549" width="281" height="70" as="geometry" />
        </mxCell>
        <mxCell id="wmerD7P6c2fhzKaJmc1H-10" value="" style="endArrow=none;html=1;rounded=0;" parent="1" source="wmerD7P6c2fhzKaJmc1H-9" edge="1">
          <mxGeometry width="50" height="50" relative="1" as="geometry">
            <mxPoint x="439" y="579" as="sourcePoint" />
            <mxPoint x="635" y="579" as="targetPoint" />
          </mxGeometry>
        </mxCell>
        <mxCell id="wmerD7P6c2fhzKaJmc1H-14" value="" style="endArrow=none;html=1;rounded=0;" parent="1" edge="1">
          <mxGeometry width="50" height="50" relative="1" as="geometry">
            <mxPoint y="380" as="sourcePoint" />
            <mxPoint x="850" y="380" as="targetPoint" />
          </mxGeometry>
        </mxCell>
        <mxCell id="wmerD7P6c2fhzKaJmc1H-15" value="" style="endArrow=none;html=1;rounded=0;" parent="1" edge="1">
          <mxGeometry width="50" height="50" relative="1" as="geometry">
            <mxPoint y="1129.9999999999998" as="sourcePoint" />
            <mxPoint x="890" y="1130" as="targetPoint" />
          </mxGeometry>
        </mxCell>
        <mxCell id="wmerD7P6c2fhzKaJmc1H-16" value="" style="endArrow=none;html=1;rounded=0;" parent="1" edge="1">
          <mxGeometry width="50" height="50" relative="1" as="geometry">
            <mxPoint y="903.9999999999998" as="sourcePoint" />
            <mxPoint x="850" y="903.9999999999998" as="targetPoint" />
          </mxGeometry>
        </mxCell>
        <mxCell id="wmerD7P6c2fhzKaJmc1H-17" value="" style="endArrow=none;html=1;rounded=0;" parent="1" edge="1">
          <mxGeometry width="50" height="50" relative="1" as="geometry">
            <mxPoint y="1620" as="sourcePoint" />
            <mxPoint x="1170" y="1620" as="targetPoint" />
          </mxGeometry>
        </mxCell>
        <mxCell id="lCzbDf0Nkc0ctEeIGAdn-2" value="&amp;lt;precedes&amp;gt;" style="text;html=1;align=center;verticalAlign=middle;resizable=0;points=[];autosize=1;strokeColor=none;fillColor=none;rotation=-25;" parent="1" vertex="1">
          <mxGeometry x="249" y="290" width="90" height="30" as="geometry" />
        </mxCell>
        <mxCell id="lCzbDf0Nkc0ctEeIGAdn-3" value="&amp;lt;precedes&amp;gt;" style="text;html=1;align=center;verticalAlign=middle;resizable=0;points=[];autosize=1;strokeColor=none;fillColor=none;rotation=-30;" parent="1" vertex="1">
          <mxGeometry x="226.5" y="280" width="90" height="30" as="geometry" />
        </mxCell>
        <mxCell id="lCzbDf0Nkc0ctEeIGAdn-6" style="edgeStyle=orthogonalEdgeStyle;rounded=0;orthogonalLoop=1;jettySize=auto;html=1;entryX=-0.002;entryY=0.642;entryDx=0;entryDy=0;entryPerimeter=0;exitX=1;exitY=0.5;exitDx=0;exitDy=0;endArrow=diamondThin;endFill=0;endSize=12;" parent="1" source="wmerD7P6c2fhzKaJmc1H-1" target="wmerD7P6c2fhzKaJmc1H-9" edge="1">
          <mxGeometry relative="1" as="geometry" />
        </mxCell>
        <mxCell id="lCzbDf0Nkc0ctEeIGAdn-7" style="edgeStyle=orthogonalEdgeStyle;rounded=0;orthogonalLoop=1;jettySize=auto;html=1;entryX=0.331;entryY=1.057;entryDx=0;entryDy=0;entryPerimeter=0;endArrow=diamondThin;endFill=0;endSize=12;exitX=0.664;exitY=0.003;exitDx=0;exitDy=0;exitPerimeter=0;" parent="1" source="wmerD7P6c2fhzKaJmc1H-5" target="wmerD7P6c2fhzKaJmc1H-9" edge="1">
          <mxGeometry relative="1" as="geometry">
            <mxPoint x="210" y="640" as="sourcePoint" />
            <Array as="points">
              <mxPoint x="210" y="659" />
              <mxPoint x="210" y="631" />
              <mxPoint x="340" y="631" />
              <mxPoint x="509" y="630" />
            </Array>
          </mxGeometry>
        </mxCell>
        <mxCell id="4rPIcV-lHyRuGQjlF1An-16" value="PalyaTipus" style="swimlane;whiteSpace=wrap;html=1;" parent="1" vertex="1">
          <mxGeometry x="300" y="1630" width="180" height="70" as="geometry" />
        </mxCell>
        <mxCell id="4rPIcV-lHyRuGQjlF1An-18" value="" style="endArrow=none;html=1;rounded=0;" parent="4rPIcV-lHyRuGQjlF1An-16" edge="1">
          <mxGeometry width="50" height="50" relative="1" as="geometry">
            <mxPoint y="40" as="sourcePoint" />
            <mxPoint x="171" y="40.00000000000023" as="targetPoint" />
            <Array as="points">
              <mxPoint y="40" />
            </Array>
          </mxGeometry>
        </mxCell>
        <mxCell id="4rPIcV-lHyRuGQjlF1An-17" value="&amp;lt;&amp;lt;interface&amp;gt;&amp;gt;" style="text;html=1;align=left;verticalAlign=middle;resizable=0;points=[];autosize=1;strokeColor=none;fillColor=none;" parent="4rPIcV-lHyRuGQjlF1An-16" vertex="1">
          <mxGeometry x="44" y="16" width="100" height="30" as="geometry" />
        </mxCell>
        <mxCell id="4rPIcV-lHyRuGQjlF1An-19" value="+ PalyaAr():int" style="text;html=1;align=left;verticalAlign=middle;resizable=0;points=[];autosize=1;strokeColor=none;fillColor=none;" parent="4rPIcV-lHyRuGQjlF1An-16" vertex="1">
          <mxGeometry y="40" width="100" height="30" as="geometry" />
        </mxCell>
        <mxCell id="4rPIcV-lHyRuGQjlF1An-23" style="edgeStyle=orthogonalEdgeStyle;rounded=0;orthogonalLoop=1;jettySize=auto;html=1;endArrow=diamondThin;endFill=0;endSize=14;entryX=-0.005;entryY=0.534;entryDx=0;entryDy=0;entryPerimeter=0;" parent="1" target="RCcNGVWDQ_7rDxmdVCuK-42" edge="1">
          <mxGeometry relative="1" as="geometry">
            <mxPoint x="161" y="1890" as="sourcePoint" />
            <mxPoint x="130" y="2089" as="targetPoint" />
            <Array as="points">
              <mxPoint x="160" y="2101" />
            </Array>
          </mxGeometry>
        </mxCell>
        <mxCell id="4rPIcV-lHyRuGQjlF1An-24" style="edgeStyle=orthogonalEdgeStyle;rounded=0;orthogonalLoop=1;jettySize=auto;html=1;endArrow=diamondThin;endFill=1;endSize=12;entryX=0.503;entryY=1.002;entryDx=0;entryDy=0;entryPerimeter=0;" parent="1" source="RCcNGVWDQ_7rDxmdVCuK-32" target="RCcNGVWDQ_7rDxmdVCuK-38" edge="1">
          <mxGeometry relative="1" as="geometry">
            <mxPoint x="700" y="1910" as="targetPoint" />
            <Array as="points">
              <mxPoint x="160" y="1960" />
              <mxPoint x="670" y="1960" />
            </Array>
          </mxGeometry>
        </mxCell>
        <mxCell id="4rPIcV-lHyRuGQjlF1An-27" style="edgeStyle=orthogonalEdgeStyle;rounded=0;orthogonalLoop=1;jettySize=auto;html=1;exitX=0.5;exitY=0;exitDx=0;exitDy=0;endArrow=diamondThin;endFill=0;endSize=12;" parent="1" source="RCcNGVWDQ_7rDxmdVCuK-41" edge="1">
          <mxGeometry relative="1" as="geometry">
            <mxPoint x="374" y="1930" as="targetPoint" />
            <Array as="points">
              <mxPoint x="380" y="1966" />
              <mxPoint x="374" y="1966" />
            </Array>
          </mxGeometry>
        </mxCell>
        <mxCell id="bFtffV7Dq0BiN4H6MrVR-2" value="Kedvezmeny" style="swimlane;whiteSpace=wrap;html=1;" parent="1" vertex="1">
          <mxGeometry x="10" y="1630" width="170" height="70" as="geometry" />
        </mxCell>
        <mxCell id="bFtffV7Dq0BiN4H6MrVR-3" value="" style="endArrow=none;html=1;rounded=0;" parent="bFtffV7Dq0BiN4H6MrVR-2" edge="1">
          <mxGeometry width="50" height="50" relative="1" as="geometry">
            <mxPoint y="40" as="sourcePoint" />
            <mxPoint x="171" y="40.00000000000023" as="targetPoint" />
            <Array as="points">
              <mxPoint y="40" />
            </Array>
          </mxGeometry>
        </mxCell>
        <mxCell id="bFtffV7Dq0BiN4H6MrVR-4" value="&amp;lt;&amp;lt;enumeration&amp;gt;&amp;gt;" style="text;html=1;align=left;verticalAlign=middle;resizable=0;points=[];autosize=1;strokeColor=none;fillColor=none;" parent="bFtffV7Dq0BiN4H6MrVR-2" vertex="1">
          <mxGeometry x="30" y="20" width="120" height="30" as="geometry" />
        </mxCell>
        <mxCell id="bFtffV7Dq0BiN4H6MrVR-5" value="{ Felnott, Diak, Nyugdijas }" style="text;html=1;align=left;verticalAlign=middle;resizable=0;points=[];autosize=1;strokeColor=none;fillColor=none;" parent="bFtffV7Dq0BiN4H6MrVR-2" vertex="1">
          <mxGeometry y="40" width="160" height="30" as="geometry" />
        </mxCell>
        <mxCell id="bFtffV7Dq0BiN4H6MrVR-6" style="edgeStyle=orthogonalEdgeStyle;rounded=0;orthogonalLoop=1;jettySize=auto;html=1;entryX=0.271;entryY=-0.013;entryDx=0;entryDy=0;entryPerimeter=0;" parent="1" source="bFtffV7Dq0BiN4H6MrVR-5" target="RCcNGVWDQ_7rDxmdVCuK-30" edge="1">
          <mxGeometry relative="1" as="geometry" />
        </mxCell>
        <mxCell id="bFtffV7Dq0BiN4H6MrVR-27" style="edgeStyle=orthogonalEdgeStyle;rounded=0;orthogonalLoop=1;jettySize=auto;html=1;exitX=0;exitY=0.5;exitDx=0;exitDy=0;entryX=1;entryY=0.5;entryDx=0;entryDy=0;" parent="1" source="bFtffV7Dq0BiN4H6MrVR-12" target="4rPIcV-lHyRuGQjlF1An-16" edge="1">
          <mxGeometry relative="1" as="geometry" />
        </mxCell>
        <mxCell id="bFtffV7Dq0BiN4H6MrVR-31" style="edgeStyle=orthogonalEdgeStyle;rounded=0;orthogonalLoop=1;jettySize=auto;html=1;exitX=1;exitY=0.75;exitDx=0;exitDy=0;entryX=0;entryY=0.5;entryDx=0;entryDy=0;" parent="1" source="bFtffV7Dq0BiN4H6MrVR-12" target="bFtffV7Dq0BiN4H6MrVR-16" edge="1">
          <mxGeometry relative="1" as="geometry" />
        </mxCell>
        <mxCell id="bFtffV7Dq0BiN4H6MrVR-12" value="Fuves" style="swimlane;whiteSpace=wrap;html=1;" parent="1" vertex="1">
          <mxGeometry x="890" y="1630" width="180" height="70" as="geometry" />
        </mxCell>
        <mxCell id="bFtffV7Dq0BiN4H6MrVR-13" value="" style="endArrow=none;html=1;rounded=0;" parent="bFtffV7Dq0BiN4H6MrVR-12" edge="1">
          <mxGeometry width="50" height="50" relative="1" as="geometry">
            <mxPoint y="40" as="sourcePoint" />
            <mxPoint x="171" y="40.00000000000023" as="targetPoint" />
            <Array as="points">
              <mxPoint y="40" />
            </Array>
          </mxGeometry>
        </mxCell>
        <mxCell id="bFtffV7Dq0BiN4H6MrVR-14" value="&amp;lt;&amp;lt;singleton&amp;gt;&amp;gt;" style="text;html=1;align=left;verticalAlign=middle;resizable=0;points=[];autosize=1;strokeColor=none;fillColor=none;" parent="bFtffV7Dq0BiN4H6MrVR-12" vertex="1">
          <mxGeometry x="44" y="16" width="100" height="30" as="geometry" />
        </mxCell>
        <mxCell id="bFtffV7Dq0BiN4H6MrVR-15" value="+ PalyaAr():int" style="text;html=1;align=left;verticalAlign=middle;resizable=0;points=[];autosize=1;strokeColor=none;fillColor=none;" parent="bFtffV7Dq0BiN4H6MrVR-12" vertex="1">
          <mxGeometry y="40" width="100" height="30" as="geometry" />
        </mxCell>
        <mxCell id="bFtffV7Dq0BiN4H6MrVR-16" value="return 5000" style="rounded=0;whiteSpace=wrap;html=1;" parent="1" vertex="1">
          <mxGeometry x="1080" y="1670" width="80" height="20" as="geometry" />
        </mxCell>
        <mxCell id="bFtffV7Dq0BiN4H6MrVR-28" style="edgeStyle=orthogonalEdgeStyle;rounded=0;orthogonalLoop=1;jettySize=auto;html=1;exitX=0;exitY=0.5;exitDx=0;exitDy=0;" parent="1" source="bFtffV7Dq0BiN4H6MrVR-17" edge="1">
          <mxGeometry relative="1" as="geometry">
            <mxPoint x="480" y="1660" as="targetPoint" />
            <Array as="points">
              <mxPoint x="790" y="1745" />
              <mxPoint x="790" y="1660" />
            </Array>
          </mxGeometry>
        </mxCell>
        <mxCell id="bFtffV7Dq0BiN4H6MrVR-30" style="edgeStyle=orthogonalEdgeStyle;rounded=0;orthogonalLoop=1;jettySize=auto;html=1;exitX=1;exitY=0.75;exitDx=0;exitDy=0;entryX=0;entryY=0.5;entryDx=0;entryDy=0;" parent="1" source="bFtffV7Dq0BiN4H6MrVR-17" target="bFtffV7Dq0BiN4H6MrVR-21" edge="1">
          <mxGeometry relative="1" as="geometry" />
        </mxCell>
        <mxCell id="bFtffV7Dq0BiN4H6MrVR-17" value="Salak" style="swimlane;whiteSpace=wrap;html=1;" parent="1" vertex="1">
          <mxGeometry x="890" y="1710" width="180" height="70" as="geometry" />
        </mxCell>
        <mxCell id="bFtffV7Dq0BiN4H6MrVR-18" value="" style="endArrow=none;html=1;rounded=0;" parent="bFtffV7Dq0BiN4H6MrVR-17" edge="1">
          <mxGeometry width="50" height="50" relative="1" as="geometry">
            <mxPoint y="40" as="sourcePoint" />
            <mxPoint x="171" y="40.00000000000023" as="targetPoint" />
            <Array as="points">
              <mxPoint y="40" />
            </Array>
          </mxGeometry>
        </mxCell>
        <mxCell id="bFtffV7Dq0BiN4H6MrVR-19" value="&amp;lt;&amp;lt;singleton&amp;gt;&amp;gt;" style="text;html=1;align=left;verticalAlign=middle;resizable=0;points=[];autosize=1;strokeColor=none;fillColor=none;" parent="bFtffV7Dq0BiN4H6MrVR-17" vertex="1">
          <mxGeometry x="44" y="16" width="100" height="30" as="geometry" />
        </mxCell>
        <mxCell id="bFtffV7Dq0BiN4H6MrVR-20" value="+ PalyaAr():int" style="text;html=1;align=left;verticalAlign=middle;resizable=0;points=[];autosize=1;strokeColor=none;fillColor=none;" parent="bFtffV7Dq0BiN4H6MrVR-17" vertex="1">
          <mxGeometry y="40" width="100" height="30" as="geometry" />
        </mxCell>
        <mxCell id="bFtffV7Dq0BiN4H6MrVR-21" value="return 3000" style="rounded=0;whiteSpace=wrap;html=1;" parent="1" vertex="1">
          <mxGeometry x="1080" y="1750" width="80" height="20" as="geometry" />
        </mxCell>
        <mxCell id="bFtffV7Dq0BiN4H6MrVR-29" style="edgeStyle=orthogonalEdgeStyle;rounded=0;orthogonalLoop=1;jettySize=auto;html=1;exitX=0;exitY=0.5;exitDx=0;exitDy=0;entryX=1;entryY=0.5;entryDx=0;entryDy=0;" parent="1" source="bFtffV7Dq0BiN4H6MrVR-22" target="4rPIcV-lHyRuGQjlF1An-16" edge="1">
          <mxGeometry relative="1" as="geometry">
            <Array as="points">
              <mxPoint x="820" y="1825" />
              <mxPoint x="820" y="1670" />
              <mxPoint x="480" y="1670" />
            </Array>
          </mxGeometry>
        </mxCell>
        <mxCell id="bFtffV7Dq0BiN4H6MrVR-32" style="edgeStyle=orthogonalEdgeStyle;rounded=0;orthogonalLoop=1;jettySize=auto;html=1;exitX=1;exitY=0.75;exitDx=0;exitDy=0;entryX=0;entryY=0.5;entryDx=0;entryDy=0;" parent="1" source="bFtffV7Dq0BiN4H6MrVR-22" target="bFtffV7Dq0BiN4H6MrVR-26" edge="1">
          <mxGeometry relative="1" as="geometry" />
        </mxCell>
        <mxCell id="bFtffV7Dq0BiN4H6MrVR-22" value="Muanyag" style="swimlane;whiteSpace=wrap;html=1;" parent="1" vertex="1">
          <mxGeometry x="890" y="1790" width="180" height="70" as="geometry" />
        </mxCell>
        <mxCell id="bFtffV7Dq0BiN4H6MrVR-23" value="" style="endArrow=none;html=1;rounded=0;" parent="bFtffV7Dq0BiN4H6MrVR-22" edge="1">
          <mxGeometry width="50" height="50" relative="1" as="geometry">
            <mxPoint y="40" as="sourcePoint" />
            <mxPoint x="171" y="40.00000000000023" as="targetPoint" />
            <Array as="points">
              <mxPoint y="40" />
            </Array>
          </mxGeometry>
        </mxCell>
        <mxCell id="bFtffV7Dq0BiN4H6MrVR-24" value="&amp;lt;&amp;lt;singleton&amp;gt;&amp;gt;" style="text;html=1;align=left;verticalAlign=middle;resizable=0;points=[];autosize=1;strokeColor=none;fillColor=none;" parent="bFtffV7Dq0BiN4H6MrVR-22" vertex="1">
          <mxGeometry x="44" y="16" width="100" height="30" as="geometry" />
        </mxCell>
        <mxCell id="bFtffV7Dq0BiN4H6MrVR-25" value="+ PalyaAr():int" style="text;html=1;align=left;verticalAlign=middle;resizable=0;points=[];autosize=1;strokeColor=none;fillColor=none;" parent="bFtffV7Dq0BiN4H6MrVR-22" vertex="1">
          <mxGeometry y="40" width="100" height="30" as="geometry" />
        </mxCell>
        <mxCell id="bFtffV7Dq0BiN4H6MrVR-26" value="return 2000" style="rounded=0;whiteSpace=wrap;html=1;" parent="1" vertex="1">
          <mxGeometry x="1080" y="1830" width="80" height="20" as="geometry" />
        </mxCell>
        <mxCell id="bFtffV7Dq0BiN4H6MrVR-38" value="Palya1 : Palya" style="swimlane;whiteSpace=wrap;html=1;" parent="1" vertex="1">
          <mxGeometry x="6.5" y="390" width="140" height="105" as="geometry" />
        </mxCell>
        <mxCell id="bFtffV7Dq0BiN4H6MrVR-41" value="sorszam: 1&lt;div&gt;PalyaTipus: Fuves&lt;/div&gt;&lt;div&gt;fedett: true&lt;/div&gt;&lt;div&gt;Foglalasok: Foglalas1&lt;/div&gt;&lt;div&gt;&lt;br&gt;&lt;/div&gt;" style="text;html=1;align=left;verticalAlign=middle;resizable=0;points=[];autosize=1;strokeColor=none;fillColor=none;" parent="bFtffV7Dq0BiN4H6MrVR-38" vertex="1">
          <mxGeometry y="15" width="140" height="90" as="geometry" />
        </mxCell>
        <mxCell id="bFtffV7Dq0BiN4H6MrVR-55" value="Palya2 : Palya" style="swimlane;whiteSpace=wrap;html=1;" parent="1" vertex="1">
          <mxGeometry x="150" y="390" width="133.5" height="80" as="geometry" />
        </mxCell>
        <mxCell id="bFtffV7Dq0BiN4H6MrVR-56" value="sorszam: 2&lt;div&gt;PalyaTipus: Salak&lt;/div&gt;&lt;div&gt;fedett: false&lt;/div&gt;&lt;div&gt;Foglalasok: null&lt;/div&gt;&lt;div&gt;&lt;br&gt;&lt;/div&gt;" style="text;html=1;align=left;verticalAlign=middle;resizable=0;points=[];autosize=1;strokeColor=none;fillColor=none;" parent="bFtffV7Dq0BiN4H6MrVR-55" vertex="1">
          <mxGeometry y="15" width="110" height="90" as="geometry" />
        </mxCell>
        <mxCell id="bFtffV7Dq0BiN4H6MrVR-57" value="Palya3 : Palya" style="swimlane;whiteSpace=wrap;html=1;" parent="1" vertex="1">
          <mxGeometry x="292" y="390" width="133.5" height="80" as="geometry" />
        </mxCell>
        <mxCell id="bFtffV7Dq0BiN4H6MrVR-58" value="sorszam: 3&lt;div&gt;PalyaTipus: Muanyag&lt;/div&gt;&lt;div&gt;fedett: true&lt;/div&gt;&lt;div&gt;Foglalasok: null&lt;/div&gt;&lt;div&gt;&lt;br&gt;&lt;/div&gt;" style="text;html=1;align=left;verticalAlign=middle;resizable=0;points=[];autosize=1;strokeColor=none;fillColor=none;" parent="bFtffV7Dq0BiN4H6MrVR-57" vertex="1">
          <mxGeometry y="15" width="110" height="90" as="geometry" />
        </mxCell>
        <mxCell id="bFtffV7Dq0BiN4H6MrVR-59" value="Palya4 : Palya" style="swimlane;whiteSpace=wrap;html=1;" parent="1" vertex="1">
          <mxGeometry x="439" y="390" width="133.5" height="80" as="geometry" />
        </mxCell>
        <mxCell id="bFtffV7Dq0BiN4H6MrVR-60" value="sorszam: 4&lt;div&gt;PalyaTipus: Fuves&lt;/div&gt;&lt;div&gt;fedett: false&lt;/div&gt;&lt;div&gt;Foglalasok: null&lt;/div&gt;&lt;div&gt;&lt;br&gt;&lt;/div&gt;" style="text;html=1;align=left;verticalAlign=middle;resizable=0;points=[];autosize=1;strokeColor=none;fillColor=none;" parent="bFtffV7Dq0BiN4H6MrVR-59" vertex="1">
          <mxGeometry y="15" width="110" height="90" as="geometry" />
        </mxCell>
        <mxCell id="bFtffV7Dq0BiN4H6MrVR-61" value="Palya5 : Palya" style="swimlane;whiteSpace=wrap;html=1;" parent="1" vertex="1">
          <mxGeometry x="585" y="390" width="133.5" height="80" as="geometry" />
        </mxCell>
        <mxCell id="bFtffV7Dq0BiN4H6MrVR-62" value="sorszam: 5&lt;div&gt;PalyaTipus: Salak&lt;/div&gt;&lt;div&gt;fedett: false&lt;/div&gt;&lt;div&gt;Foglalasok: null&lt;/div&gt;&lt;div&gt;&lt;br&gt;&lt;/div&gt;" style="text;html=1;align=left;verticalAlign=middle;resizable=0;points=[];autosize=1;strokeColor=none;fillColor=none;" parent="bFtffV7Dq0BiN4H6MrVR-61" vertex="1">
          <mxGeometry y="15" width="110" height="90" as="geometry" />
        </mxCell>
        <mxCell id="bFtffV7Dq0BiN4H6MrVR-71" style="edgeStyle=orthogonalEdgeStyle;rounded=0;orthogonalLoop=1;jettySize=auto;html=1;exitX=0.5;exitY=0;exitDx=0;exitDy=0;" parent="1" source="bFtffV7Dq0BiN4H6MrVR-64" edge="1">
          <mxGeometry relative="1" as="geometry">
            <mxPoint x="410" y="470" as="targetPoint" />
            <Array as="points">
              <mxPoint x="344" y="568" />
              <mxPoint x="411" y="568" />
              <mxPoint x="411" y="470" />
            </Array>
          </mxGeometry>
        </mxCell>
        <mxCell id="bFtffV7Dq0BiN4H6MrVR-64" value="" style="rounded=0;whiteSpace=wrap;html=1;" parent="1" vertex="1">
          <mxGeometry x="284" y="664" width="120" height="110" as="geometry" />
        </mxCell>
        <mxCell id="bFtffV7Dq0BiN4H6MrVR-65" value="&lt;div&gt;&lt;br&gt;&lt;/div&gt;&lt;span style=&quot;text-align: left;&quot;&gt;&lt;div&gt;&lt;span style=&quot;text-align: left;&quot;&gt;Foglalas2 : Foglalas&lt;/span&gt;&lt;/div&gt;&lt;div&gt;&lt;span style=&quot;text-align: left;&quot;&gt;&lt;br&gt;&lt;/span&gt;&lt;/div&gt;klubtag: &quot;Elvará Zsolt&quot;&lt;/span&gt;&lt;div style=&quot;text-align: left;&quot;&gt;palya: Palya3&lt;/div&gt;&lt;div style=&quot;text-align: left;&quot;&gt;datum: 0404&lt;/div&gt;&lt;div style=&quot;text-align: left;&quot;&gt;ora: 14&lt;/div&gt;&lt;div style=&quot;text-align: left;&quot;&gt;dij: 4000&lt;/div&gt;" style="text;html=1;align=center;verticalAlign=middle;resizable=0;points=[];autosize=1;strokeColor=none;fillColor=none;" parent="1" vertex="1">
          <mxGeometry x="274" y="649" width="140" height="130" as="geometry" />
        </mxCell>
        <mxCell id="bFtffV7Dq0BiN4H6MrVR-66" value="" style="endArrow=none;html=1;rounded=0;" parent="1" edge="1">
          <mxGeometry width="50" height="50" relative="1" as="geometry">
            <mxPoint x="284" y="684" as="sourcePoint" />
            <mxPoint x="404" y="684" as="targetPoint" />
          </mxGeometry>
        </mxCell>
        <mxCell id="bFtffV7Dq0BiN4H6MrVR-77" style="edgeStyle=orthogonalEdgeStyle;rounded=0;orthogonalLoop=1;jettySize=auto;html=1;exitX=0.75;exitY=0;exitDx=0;exitDy=0;endSize=10;endArrow=diamondThin;endFill=0;" parent="1" source="bFtffV7Dq0BiN4H6MrVR-72" edge="1">
          <mxGeometry relative="1" as="geometry">
            <mxPoint x="560" y="620" as="targetPoint" />
          </mxGeometry>
        </mxCell>
        <mxCell id="bFtffV7Dq0BiN4H6MrVR-72" value="" style="rounded=0;whiteSpace=wrap;html=1;" parent="1" vertex="1">
          <mxGeometry x="554" y="674" width="191" height="90" as="geometry" />
        </mxCell>
        <mxCell id="bFtffV7Dq0BiN4H6MrVR-73" value="" style="endArrow=none;html=1;rounded=0;entryX=0.006;entryY=0.367;entryDx=0;entryDy=0;entryPerimeter=0;" parent="1" target="bFtffV7Dq0BiN4H6MrVR-72" edge="1">
          <mxGeometry width="50" height="50" relative="1" as="geometry">
            <mxPoint x="747.5" y="707" as="sourcePoint" />
            <mxPoint x="747.5" y="743" as="targetPoint" />
          </mxGeometry>
        </mxCell>
        <mxCell id="bFtffV7Dq0BiN4H6MrVR-74" value="ElvaraZsolt : Klubtag&lt;div&gt;&lt;br&gt;&lt;/div&gt;&lt;div&gt;nev: &quot;Elavará Zsolt&quot;&lt;span style=&quot;white-space: pre;&quot;&gt;&#x9;&lt;/span&gt;&lt;div&gt;kedvezmeny: Nyugdíjas&lt;/div&gt;&lt;div&gt;foglalasok: &amp;lt;Foglalas2&amp;gt;&lt;/div&gt;&lt;div&gt;&lt;br style=&quot;&quot;&gt;&lt;/div&gt;&lt;/div&gt;" style="text;html=1;align=left;verticalAlign=middle;resizable=0;points=[];autosize=1;strokeColor=none;fillColor=none;" parent="1" vertex="1">
          <mxGeometry x="565" y="674" width="160" height="100" as="geometry" />
        </mxCell>
        <mxCell id="bFtffV7Dq0BiN4H6MrVR-75" style="edgeStyle=orthogonalEdgeStyle;rounded=0;orthogonalLoop=1;jettySize=auto;html=1;exitX=0;exitY=0.5;exitDx=0;exitDy=0;entryX=0.987;entryY=0.541;entryDx=0;entryDy=0;entryPerimeter=0;endArrow=diamondThin;endFill=1;endSize=10;" parent="1" source="bFtffV7Dq0BiN4H6MrVR-72" target="bFtffV7Dq0BiN4H6MrVR-65" edge="1">
          <mxGeometry relative="1" as="geometry" />
        </mxCell>
        <mxCell id="bFtffV7Dq0BiN4H6MrVR-78" value="" style="endArrow=none;html=1;rounded=0;" parent="1" target="wmerD7P6c2fhzKaJmc1H-9" edge="1">
          <mxGeometry width="50" height="50" relative="1" as="geometry">
            <mxPoint x="439" y="579" as="sourcePoint" />
            <mxPoint x="635" y="579" as="targetPoint" />
          </mxGeometry>
        </mxCell>
        <mxCell id="wmerD7P6c2fhzKaJmc1H-9" value="&lt;div&gt;&lt;span style=&quot;&quot;&gt;NyugdijasKlub : Teniszklub&lt;/span&gt;&lt;/div&gt;&lt;span style=&quot;&quot;&gt;&lt;div&gt;&lt;span style=&quot;&quot;&gt;&lt;br&gt;&lt;/span&gt;&lt;/div&gt;Palyak: &amp;lt;Palya1, Palya2, Palya3, Palya 4, Palya 5&amp;gt;&lt;/span&gt;&lt;div style=&quot;&quot;&gt;Klubtagok &amp;lt;Füty Imre, Elvará Zsolt&amp;gt;&lt;/div&gt;" style="text;html=1;align=left;verticalAlign=middle;resizable=0;points=[];autosize=1;strokeColor=none;fillColor=none;" parent="1" vertex="1">
          <mxGeometry x="440" y="549" width="290" height="70" as="geometry" />
        </mxCell>
        <mxCell id="bFtffV7Dq0BiN4H6MrVR-79" value="" style="endArrow=none;html=1;rounded=0;exitX=0.002;exitY=0.368;exitDx=0;exitDy=0;exitPerimeter=0;" parent="1" source="wmerD7P6c2fhzKaJmc1H-9" edge="1">
          <mxGeometry width="50" height="50" relative="1" as="geometry">
            <mxPoint x="470" y="690" as="sourcePoint" />
            <mxPoint x="720" y="576" as="targetPoint" />
          </mxGeometry>
        </mxCell>
        <mxCell id="bFtffV7Dq0BiN4H6MrVR-85" value="" style="rounded=1;whiteSpace=wrap;html=1;" parent="1" vertex="1">
          <mxGeometry x="-740" y="1430" width="660" height="210" as="geometry" />
        </mxCell>
        <mxCell id="bFtffV7Dq0BiN4H6MrVR-86" value="&lt;div&gt;Teniszpálya&lt;/div&gt;&lt;div&gt;&lt;br&gt;&lt;/div&gt;&lt;div&gt;&lt;br&gt;&lt;/div&gt;" style="text;html=1;align=center;verticalAlign=middle;whiteSpace=wrap;rounded=0;" parent="1" vertex="1">
          <mxGeometry x="-470" y="1440" width="60" height="30" as="geometry" />
        </mxCell>
        <mxCell id="bFtffV7Dq0BiN4H6MrVR-89" style="edgeStyle=orthogonalEdgeStyle;rounded=0;orthogonalLoop=1;jettySize=auto;html=1;exitX=0.5;exitY=0;exitDx=0;exitDy=0;entryX=0.5;entryY=0;entryDx=0;entryDy=0;" parent="1" source="bFtffV7Dq0BiN4H6MrVR-87" target="bFtffV7Dq0BiN4H6MrVR-88" edge="1">
          <mxGeometry relative="1" as="geometry" />
        </mxCell>
        <mxCell id="bFtffV7Dq0BiN4H6MrVR-87" value="Foglalasok vannak" style="rounded=1;whiteSpace=wrap;html=1;" parent="1" vertex="1">
          <mxGeometry x="-610" y="1515.5" width="120" height="60" as="geometry" />
        </mxCell>
        <mxCell id="bFtffV7Dq0BiN4H6MrVR-90" style="edgeStyle=orthogonalEdgeStyle;rounded=0;orthogonalLoop=1;jettySize=auto;html=1;exitX=0.5;exitY=1;exitDx=0;exitDy=0;entryX=0.5;entryY=1;entryDx=0;entryDy=0;" parent="1" source="bFtffV7Dq0BiN4H6MrVR-88" target="bFtffV7Dq0BiN4H6MrVR-87" edge="1">
          <mxGeometry relative="1" as="geometry" />
        </mxCell>
        <mxCell id="bFtffV7Dq0BiN4H6MrVR-88" value="&lt;div&gt;Nincs Foglalás&lt;/div&gt;" style="rounded=1;whiteSpace=wrap;html=1;" parent="1" vertex="1">
          <mxGeometry x="-340" y="1514.5" width="210" height="60" as="geometry" />
        </mxCell>
        <mxCell id="bFtffV7Dq0BiN4H6MrVR-91" value="" style="endArrow=none;html=1;rounded=0;entryX=1.001;entryY=0.136;entryDx=0;entryDy=0;entryPerimeter=0;exitX=0.004;exitY=0.138;exitDx=0;exitDy=0;exitPerimeter=0;" parent="1" source="bFtffV7Dq0BiN4H6MrVR-85" target="bFtffV7Dq0BiN4H6MrVR-85" edge="1">
          <mxGeometry width="50" height="50" relative="1" as="geometry">
            <mxPoint x="-735" y="1420" as="sourcePoint" />
            <mxPoint x="-690" y="1400" as="targetPoint" />
          </mxGeometry>
        </mxCell>
        <mxCell id="bFtffV7Dq0BiN4H6MrVR-92" style="edgeStyle=orthogonalEdgeStyle;rounded=0;orthogonalLoop=1;jettySize=auto;html=1;exitX=0.25;exitY=1;exitDx=0;exitDy=0;entryX=0.25;entryY=0;entryDx=0;entryDy=0;" parent="1" source="bFtffV7Dq0BiN4H6MrVR-87" target="bFtffV7Dq0BiN4H6MrVR-87" edge="1">
          <mxGeometry relative="1" as="geometry">
            <Array as="points">
              <mxPoint x="-580" y="1595" />
              <mxPoint x="-620" y="1595" />
              <mxPoint x="-620" y="1495" />
              <mxPoint x="-580" y="1495" />
            </Array>
          </mxGeometry>
        </mxCell>
        <mxCell id="bFtffV7Dq0BiN4H6MrVR-95" value="Foglalas()" style="text;html=1;align=center;verticalAlign=middle;whiteSpace=wrap;rounded=0;" parent="1" vertex="1">
          <mxGeometry x="-440" y="1599" width="60" height="30" as="geometry" />
        </mxCell>
        <mxCell id="bFtffV7Dq0BiN4H6MrVR-96" value="Visszamond()[Teniszpalya.foglalasok.isEmpty()]" style="text;html=1;align=center;verticalAlign=middle;whiteSpace=wrap;rounded=0;" parent="1" vertex="1">
          <mxGeometry x="-440" y="1465" width="80" height="30" as="geometry" />
        </mxCell>
        <mxCell id="bFtffV7Dq0BiN4H6MrVR-97" value="Foglalas()" style="text;html=1;align=center;verticalAlign=middle;whiteSpace=wrap;rounded=0;" parent="1" vertex="1">
          <mxGeometry x="-680" y="1524" width="60" height="30" as="geometry" />
        </mxCell>
        <mxCell id="bFtffV7Dq0BiN4H6MrVR-101" style="edgeStyle=orthogonalEdgeStyle;rounded=0;orthogonalLoop=1;jettySize=auto;html=1;entryX=1;entryY=0.5;entryDx=0;entryDy=0;" parent="1" source="bFtffV7Dq0BiN4H6MrVR-100" target="bFtffV7Dq0BiN4H6MrVR-88" edge="1">
          <mxGeometry relative="1" as="geometry">
            <Array as="points">
              <mxPoint x="-102" y="1535" />
              <mxPoint x="-110" y="1535" />
              <mxPoint x="-110" y="1545" />
            </Array>
          </mxGeometry>
        </mxCell>
        <mxCell id="bFtffV7Dq0BiN4H6MrVR-100" value="" style="ellipse;whiteSpace=wrap;html=1;aspect=fixed;" parent="1" vertex="1">
          <mxGeometry x="-110" y="1498.5" width="16" height="16" as="geometry" />
        </mxCell>
        <mxCell id="bFtffV7Dq0BiN4H6MrVR-102" value="Teniszpalya()" style="text;html=1;align=center;verticalAlign=middle;whiteSpace=wrap;rounded=0;" parent="1" vertex="1">
          <mxGeometry x="-150" y="1470" width="60" height="30" as="geometry" />
        </mxCell>
        <mxCell id="bFtffV7Dq0BiN4H6MrVR-103" value="" style="html=1;labelBackgroundColor=#ffffff;jettySize=auto;orthogonalLoop=1;fontSize=14;rounded=0;jumpStyle=gap;edgeStyle=orthogonalEdgeStyle;startArrow=oval;endArrow=oval;strokeWidth=2;startFill=1;endFill=1;sourcePerimeterSpacing=3;targetPerimeterSpacing=3;" parent="1" edge="1">
          <mxGeometry width="48" height="48" relative="1" as="geometry">
            <mxPoint x="-40" y="1870" as="sourcePoint" />
            <mxPoint y="1870" as="targetPoint" />
          </mxGeometry>
        </mxCell>
        <mxCell id="bFtffV7Dq0BiN4H6MrVR-104" value="foglalasok.add(Foglalas(this, palya, datum, ora, SzamolDij(this)))" style="rounded=0;whiteSpace=wrap;html=1;" parent="1" vertex="1">
          <mxGeometry x="-400" y="1860" width="350" height="20" as="geometry" />
        </mxCell>
        <mxCell id="bFtffV7Dq0BiN4H6MrVR-105" value="" style="html=1;labelBackgroundColor=#ffffff;jettySize=auto;orthogonalLoop=1;fontSize=14;rounded=0;jumpStyle=gap;edgeStyle=orthogonalEdgeStyle;startArrow=oval;endArrow=oval;strokeWidth=2;startFill=1;endFill=1;sourcePerimeterSpacing=3;targetPerimeterSpacing=3;" parent="1" edge="1">
          <mxGeometry width="48" height="48" relative="1" as="geometry">
            <mxPoint x="-40" y="1910" as="sourcePoint" />
            <mxPoint y="1890" as="targetPoint" />
          </mxGeometry>
        </mxCell>
        <mxCell id="bFtffV7Dq0BiN4H6MrVR-106" value="&lt;div align=&quot;left&quot;&gt;if foglalas not in foglalasok then error&lt;/div&gt;&lt;div align=&quot;left&quot;&gt;else foglalasok.remove(foglalas)&lt;/div&gt;" style="rounded=0;whiteSpace=wrap;html=1;align=left;" parent="1" vertex="1">
          <mxGeometry x="-260" y="1890" width="210" height="37" as="geometry" />
        </mxCell>
        <mxCell id="bFtffV7Dq0BiN4H6MrVR-108" value="&lt;div&gt;int kedvezmeny = 1&lt;/div&gt;&lt;div align=&quot;left&quot;&gt;if klubtag.kedvezmeny = Nyugdijas || klubtag.kedvezmeny = Diak then kedvezmeny = 0.8&lt;/div&gt;&lt;div align=&quot;left&quot;&gt;if this.fedett then return PalyaTipus.PalyaAr() * 1.2 * kedvezmeny&lt;/div&gt;&lt;div align=&quot;left&quot;&gt;else return PalyaTipus.PalyaAr()&lt;/div&gt;" style="rounded=0;whiteSpace=wrap;html=1;align=left;" parent="1" vertex="1">
          <mxGeometry x="760" y="1910" width="480" height="70" as="geometry" />
        </mxCell>
        <mxCell id="bFtffV7Dq0BiN4H6MrVR-110" value="" style="html=1;labelBackgroundColor=#ffffff;jettySize=auto;orthogonalLoop=1;fontSize=14;rounded=0;jumpStyle=gap;edgeStyle=orthogonalEdgeStyle;startArrow=oval;endArrow=oval;strokeWidth=2;startFill=1;endFill=1;sourcePerimeterSpacing=3;targetPerimeterSpacing=3;" parent="1" edge="1">
          <mxGeometry width="48" height="48" relative="1" as="geometry">
            <mxPoint x="750" y="2060" as="sourcePoint" />
            <mxPoint x="560" y="1890" as="targetPoint" />
            <Array as="points">
              <mxPoint x="620" y="2060" />
              <mxPoint x="620" y="1980" />
              <mxPoint x="560" y="1980" />
            </Array>
          </mxGeometry>
        </mxCell>
        <mxCell id="bFtffV7Dq0BiN4H6MrVR-111" value="&lt;div align=&quot;left&quot;&gt;for f in foglalasok&lt;/div&gt;&lt;div align=&quot;left&quot;&gt;&lt;span style=&quot;white-space: pre;&quot;&gt;&#x9;&lt;/span&gt;if datum = f.datum and ora = f.ora then return false&lt;/div&gt;&lt;div align=&quot;left&quot;&gt;else return true&lt;/div&gt;" style="rounded=0;whiteSpace=wrap;html=1;align=left;" parent="1" vertex="1">
          <mxGeometry x="760" y="2030" width="300" height="60" as="geometry" />
        </mxCell>
        <mxCell id="bFtffV7Dq0BiN4H6MrVR-112" value="" style="html=1;labelBackgroundColor=#ffffff;jettySize=auto;orthogonalLoop=1;fontSize=14;rounded=0;jumpStyle=gap;edgeStyle=orthogonalEdgeStyle;startArrow=oval;endArrow=oval;strokeWidth=2;startFill=1;endFill=1;sourcePerimeterSpacing=3;targetPerimeterSpacing=3;" parent="1" edge="1">
          <mxGeometry width="48" height="48" relative="1" as="geometry">
            <mxPoint x="80" y="2080" as="sourcePoint" />
            <mxPoint x="178" y="2080" as="targetPoint" />
          </mxGeometry>
        </mxCell>
        <mxCell id="bFtffV7Dq0BiN4H6MrVR-113" value="Palyak.add(Palya(sorszam, boritas, fedett))" style="rounded=0;whiteSpace=wrap;html=1;" parent="1" vertex="1">
          <mxGeometry x="-170" y="2065" width="240" height="25" as="geometry" />
        </mxCell>
        <mxCell id="bFtffV7Dq0BiN4H6MrVR-114" value="" style="html=1;labelBackgroundColor=#ffffff;jettySize=auto;orthogonalLoop=1;fontSize=14;rounded=0;jumpStyle=gap;edgeStyle=orthogonalEdgeStyle;startArrow=oval;endArrow=oval;strokeWidth=2;startFill=1;endFill=1;sourcePerimeterSpacing=3;targetPerimeterSpacing=3;" parent="1" edge="1">
          <mxGeometry width="48" height="48" relative="1" as="geometry">
            <mxPoint x="80" y="2110" as="sourcePoint" />
            <mxPoint x="180" y="2090" as="targetPoint" />
            <Array as="points">
              <mxPoint x="80" y="2090" />
            </Array>
          </mxGeometry>
        </mxCell>
        <mxCell id="bFtffV7Dq0BiN4H6MrVR-115" value="&lt;div align=&quot;left&quot;&gt;for p in Palyak&lt;/div&gt;&lt;div align=&quot;left&quot;&gt;&lt;span style=&quot;white-space: pre;&quot;&gt;&#x9;&lt;/span&gt;if sorszam = p.sorszam then Palyak.remove(sorszam)&lt;/div&gt;&lt;div align=&quot;left&quot;&gt;else error&lt;/div&gt;" style="rounded=0;whiteSpace=wrap;html=1;align=left;" parent="1" vertex="1">
          <mxGeometry x="-261" y="2100" width="330" height="50" as="geometry" />
        </mxCell>
        <mxCell id="bFtffV7Dq0BiN4H6MrVR-116" value="" style="html=1;labelBackgroundColor=#ffffff;jettySize=auto;orthogonalLoop=1;fontSize=14;rounded=0;jumpStyle=gap;edgeStyle=orthogonalEdgeStyle;startArrow=oval;endArrow=oval;strokeWidth=2;startFill=1;endFill=1;sourcePerimeterSpacing=3;targetPerimeterSpacing=3;" parent="1" edge="1">
          <mxGeometry width="48" height="48" relative="1" as="geometry">
            <mxPoint x="-10" y="2040" as="sourcePoint" />
            <mxPoint x="178" y="2120" as="targetPoint" />
            <Array as="points">
              <mxPoint x="140" y="2040" />
              <mxPoint x="140" y="2120" />
            </Array>
          </mxGeometry>
        </mxCell>
        <mxCell id="bFtffV7Dq0BiN4H6MrVR-117" value="&lt;div&gt;result &amp;lt;Palya&amp;gt; = new List&amp;lt;&amp;gt;()&lt;/div&gt;&lt;div&gt;for p in Palyak&lt;/div&gt;&lt;div&gt;&lt;span style=&quot;white-space: pre;&quot;&gt;&#x9;&lt;/span&gt;if datum /= p.datum and ora /= p.ora and boritas = p.bortias then result.add(p)&lt;/div&gt;&lt;div&gt;return result&lt;/div&gt;" style="rounded=0;whiteSpace=wrap;html=1;align=left;" parent="1" vertex="1">
          <mxGeometry x="-470" y="1980" width="450" height="70" as="geometry" />
        </mxCell>
        <mxCell id="bFtffV7Dq0BiN4H6MrVR-118" value="" style="html=1;labelBackgroundColor=#ffffff;jettySize=auto;orthogonalLoop=1;fontSize=14;rounded=0;jumpStyle=gap;edgeStyle=orthogonalEdgeStyle;startArrow=oval;endArrow=oval;strokeWidth=2;startFill=1;endFill=1;sourcePerimeterSpacing=3;targetPerimeterSpacing=3;" parent="1" edge="1">
          <mxGeometry width="48" height="48" relative="1" as="geometry">
            <mxPoint x="80" y="2178" as="sourcePoint" />
            <mxPoint x="180" y="2110" as="targetPoint" />
            <Array as="points">
              <mxPoint x="120" y="2178" />
              <mxPoint x="120" y="2110" />
              <mxPoint x="180" y="2110" />
            </Array>
          </mxGeometry>
        </mxCell>
        <mxCell id="bFtffV7Dq0BiN4H6MrVR-120" value="Klubtagok.add(Klubtag(nev, kedvezmeny))" style="rounded=0;whiteSpace=wrap;html=1;" parent="1" vertex="1">
          <mxGeometry x="-170" y="2170" width="240" height="20" as="geometry" />
        </mxCell>
        <mxCell id="bFtffV7Dq0BiN4H6MrVR-121" value="" style="html=1;labelBackgroundColor=#ffffff;jettySize=auto;orthogonalLoop=1;fontSize=14;rounded=0;jumpStyle=gap;edgeStyle=orthogonalEdgeStyle;startArrow=oval;endArrow=oval;strokeWidth=2;startFill=1;endFill=1;sourcePerimeterSpacing=3;targetPerimeterSpacing=3;" parent="1" edge="1">
          <mxGeometry width="48" height="48" relative="1" as="geometry">
            <mxPoint x="-300" y="2160" as="sourcePoint" />
            <mxPoint x="178" y="2140" as="targetPoint" />
            <Array as="points">
              <mxPoint x="140" y="2160" />
              <mxPoint x="140" y="2140" />
            </Array>
          </mxGeometry>
        </mxCell>
        <mxCell id="bFtffV7Dq0BiN4H6MrVR-122" value="&lt;div&gt;result = List&amp;lt;int, int&amp;gt;&lt;/div&gt;&lt;div align=&quot;left&quot;&gt;for f in Klubtag.foglalasok&lt;/div&gt;&lt;div&gt;&lt;span style=&quot;white-space: pre;&quot;&gt;&#x9;&lt;/span&gt;if datum = f.datum then result.add(f.datum, f.ora)&lt;/div&gt;&lt;div&gt;return result&lt;/div&gt;" style="rounded=0;whiteSpace=wrap;html=1;align=left;" parent="1" vertex="1">
          <mxGeometry x="-610" y="2120" width="295" height="70" as="geometry" />
        </mxCell>
        <mxCell id="bFtffV7Dq0BiN4H6MrVR-123" value="" style="html=1;labelBackgroundColor=#ffffff;jettySize=auto;orthogonalLoop=1;fontSize=14;rounded=0;jumpStyle=gap;edgeStyle=orthogonalEdgeStyle;startArrow=oval;endArrow=oval;strokeWidth=2;startFill=1;endFill=1;sourcePerimeterSpacing=3;targetPerimeterSpacing=3;" parent="1" edge="1">
          <mxGeometry width="48" height="48" relative="1" as="geometry">
            <mxPoint x="-490" y="1960" as="sourcePoint" />
            <mxPoint x="178" y="2150" as="targetPoint" />
            <Array as="points">
              <mxPoint x="90" y="1960" />
              <mxPoint x="90" y="2150" />
            </Array>
          </mxGeometry>
        </mxCell>
        <mxCell id="bFtffV7Dq0BiN4H6MrVR-124" value="&lt;div align=&quot;left&quot;&gt;int result = 0&lt;/div&gt;&lt;div align=&quot;left&quot;&gt;for f in klubtag.foglalasok&lt;/div&gt;&lt;div align=&quot;left&quot;&gt;&lt;span style=&quot;white-space: pre;&quot;&gt;&#x9;&lt;/span&gt;if f.datum = datum then result += f.palya.SzamolDij(klubtag)&lt;/div&gt;&lt;div align=&quot;left&quot;&gt;return result&lt;/div&gt;" style="rounded=0;whiteSpace=wrap;html=1;align=left;" parent="1" vertex="1">
          <mxGeometry x="-850" y="1927" width="350" height="60" as="geometry" />
        </mxCell>
        <mxCell id="bFtffV7Dq0BiN4H6MrVR-125" value="" style="html=1;labelBackgroundColor=#ffffff;jettySize=auto;orthogonalLoop=1;fontSize=14;rounded=0;jumpStyle=gap;edgeStyle=orthogonalEdgeStyle;startArrow=oval;endArrow=oval;strokeWidth=2;startFill=1;endFill=1;sourcePerimeterSpacing=3;targetPerimeterSpacing=3;" parent="1" edge="1">
          <mxGeometry width="48" height="48" relative="1" as="geometry">
            <mxPoint x="-480" y="1910" as="sourcePoint" />
            <mxPoint x="178" y="2170" as="targetPoint" />
            <Array as="points">
              <mxPoint x="110" y="1940" />
              <mxPoint x="110" y="2170" />
            </Array>
          </mxGeometry>
        </mxCell>
        <mxCell id="bFtffV7Dq0BiN4H6MrVR-126" value="int result = 0&lt;div align=&quot;left&quot;&gt;for p in Palyak&lt;/div&gt;&lt;div align=&quot;left&quot;&gt;&lt;span style=&quot;white-space: pre;&quot;&gt;&#x9;&lt;/span&gt;for f in p.foglalasok&lt;/div&gt;&lt;div align=&quot;left&quot;&gt;&lt;span style=&quot;white-space: pre;&quot;&gt;&#x9;&lt;/span&gt;&lt;span style=&quot;white-space: pre;&quot;&gt;&#x9;&lt;/span&gt;if f datum &amp;gt;= kezdet and datum &amp;lt;= veg then result += p.SzamolDij(f.klubtag)&lt;/div&gt;&lt;div&gt;retur result&lt;/div&gt;" style="rounded=0;whiteSpace=wrap;html=1;align=left;" parent="1" vertex="1">
          <mxGeometry x="-885" y="1815" width="460" height="85" as="geometry" />
        </mxCell>
        <mxCell id="SdZl2QMewODEJDLJdzAI-2" style="edgeStyle=orthogonalEdgeStyle;rounded=0;orthogonalLoop=1;jettySize=auto;html=1;exitX=0.75;exitY=1;exitDx=0;exitDy=0;entryX=0.462;entryY=-0.004;entryDx=0;entryDy=0;entryPerimeter=0;endArrow=diamond;endFill=0;endSize=10;" edge="1" parent="1" source="4rPIcV-lHyRuGQjlF1An-16" target="RCcNGVWDQ_7rDxmdVCuK-35">
          <mxGeometry relative="1" as="geometry" />
        </mxCell>
      </root>
    </mxGraphModel>
  </diagram>
</mxfile>
